<svg width="50" height="50" viewBox="0 0 50 50" fill="none" xmlns="http://www.w3.org/2000/svg">
<path d="M42 24C42 33.9411 33.9411 42 24 42C14.0589 42 6 33.9411 6 24C6 14.0589 14.0589 6 24 6C33.9411 6 42 14.0589 42 24ZM9.96 24C9.96 31.7541 16.2459 38.04 24 38.04C31.7541 38.04 38.04 31.7541 38.04 24C38.04 16.2459 31.7541 9.96 24 9.96C16.2459 9.96 9.96 16.2459 9.96 24Z" fill="#9FD402"/>
<path d="M15.9592 21.1818V27H14.5558V22.4943H14.5217L13.2205 23.2898V22.0739L14.6552 21.1818H15.9592ZM19.6516 27.142C19.1441 27.142 18.7066 27.0218 18.3391 26.7812C17.9717 26.5388 17.6886 26.1913 17.4897 25.7386C17.2908 25.2841 17.1924 24.7377 17.1942 24.0994C17.1961 23.4612 17.2956 22.9195 17.4925 22.4744C17.6914 22.0275 17.9736 21.6875 18.3391 21.4545C18.7066 21.2197 19.1441 21.1023 19.6516 21.1023C20.1592 21.1023 20.5967 21.2197 20.9641 21.4545C21.3335 21.6875 21.6175 22.0275 21.8164 22.4744C22.0153 22.9214 22.1138 23.4631 22.1119 24.0994C22.1119 24.7396 22.0124 25.2869 21.8136 25.7415C21.6147 26.196 21.3316 26.5436 20.9641 26.7841C20.5986 27.0227 20.1611 27.142 19.6516 27.142ZM19.6516 25.9915C19.9547 25.9915 20.1999 25.8371 20.3874 25.5284C20.5749 25.2178 20.6677 24.7415 20.6658 24.0994C20.6658 23.679 20.6232 23.3324 20.538 23.0597C20.4528 22.785 20.3344 22.5805 20.1829 22.446C20.0314 22.3116 19.8543 22.2443 19.6516 22.2443C19.3505 22.2443 19.1071 22.3968 18.9215 22.7017C18.7359 23.0047 18.6422 23.4706 18.6403 24.0994C18.6384 24.5256 18.6791 24.8788 18.7624 25.1591C18.8477 25.4394 18.967 25.6487 19.1204 25.7869C19.2738 25.9233 19.4509 25.9915 19.6516 25.9915ZM25.3235 27.142C24.8159 27.142 24.3784 27.0218 24.011 26.7812C23.6436 26.5388 23.3604 26.1913 23.1616 25.7386C22.9627 25.2841 22.8642 24.7377 22.8661 24.0994C22.868 23.4612 22.9674 22.9195 23.1644 22.4744C23.3633 22.0275 23.6455 21.6875 24.011 21.4545C24.3784 21.2197 24.8159 21.1023 25.3235 21.1023C25.8311 21.1023 26.2686 21.2197 26.636 21.4545C27.0053 21.6875 27.2894 22.0275 27.4883 22.4744C27.6871 22.9214 27.7856 23.4631 27.7837 24.0994C27.7837 24.7396 27.6843 25.2869 27.4854 25.7415C27.2866 26.196 27.0034 26.5436 26.636 26.7841C26.2705 27.0227 25.833 27.142 25.3235 27.142ZM25.3235 25.9915C25.6265 25.9915 25.8718 25.8371 26.0593 25.5284C26.2468 25.2178 26.3396 24.7415 26.3377 24.0994C26.3377 23.679 26.2951 23.3324 26.2099 23.0597C26.1246 22.785 26.0063 22.5805 25.8548 22.446C25.7032 22.3116 25.5262 22.2443 25.3235 22.2443C25.0224 22.2443 24.779 22.3968 24.5934 22.7017C24.4078 23.0047 24.314 23.4706 24.3121 24.0994C24.3103 24.5256 24.351 24.8788 24.4343 25.1591C24.5195 25.4394 24.6388 25.6487 24.7923 25.7869C24.9457 25.9233 25.1228 25.9915 25.3235 25.9915ZM31.8477 25.9091V25.6023C31.8477 25.3636 31.8988 25.143 32.0011 24.9403C32.1052 24.7377 32.2558 24.5748 32.4528 24.4517C32.6497 24.3286 32.8903 24.267 33.1744 24.267C33.4641 24.267 33.7075 24.3286 33.9045 24.4517C34.1033 24.5729 34.253 24.7348 34.3533 24.9375C34.4556 25.1383 34.5067 25.3598 34.5067 25.6023V25.9091C34.5067 26.1477 34.4556 26.3684 34.3533 26.571C34.2511 26.7737 34.1005 26.9366 33.9016 27.0597C33.7028 27.1828 33.4603 27.2443 33.1744 27.2443C32.8865 27.2443 32.6441 27.1828 32.4471 27.0597C32.2501 26.9366 32.1005 26.7737 31.9982 26.571C31.8978 26.3684 31.8477 26.1477 31.8477 25.9091ZM32.7539 25.6023V25.9091C32.7539 26.0303 32.7833 26.1468 32.842 26.2585C32.9026 26.3703 33.0134 26.4261 33.1744 26.4261C33.3391 26.4261 33.4499 26.3722 33.5067 26.2642C33.5636 26.1544 33.592 26.036 33.592 25.9091V25.6023C33.592 25.4754 33.5645 25.3561 33.5096 25.2443C33.4566 25.1307 33.3448 25.0739 33.1744 25.0739C33.0153 25.0739 32.9054 25.1307 32.8448 25.2443C32.7842 25.3561 32.7539 25.4754 32.7539 25.6023ZM28.8306 22.5795V22.2727C28.8306 22.0303 28.8827 21.8087 28.9869 21.608C29.0929 21.4053 29.2444 21.2434 29.4414 21.1222C29.6384 20.9991 29.877 20.9375 30.1573 20.9375C30.4471 20.9375 30.6905 20.9991 30.8874 21.1222C31.0863 21.2434 31.2369 21.4053 31.3391 21.608C31.4414 21.8087 31.4925 22.0303 31.4925 22.2727V22.5795C31.4925 22.822 31.4405 23.0436 31.3363 23.2443C31.234 23.4451 31.0835 23.6051 30.8846 23.7244C30.6857 23.8437 30.4433 23.9034 30.1573 23.9034C29.8713 23.9034 29.6289 23.8428 29.43 23.7216C29.2331 23.6004 29.0835 23.4394 28.9812 23.2386C28.8808 23.0379 28.8306 22.8182 28.8306 22.5795ZM29.7454 22.2727V22.5795C29.7454 22.7064 29.7747 22.8248 29.8335 22.9347C29.8941 23.0426 30.002 23.0966 30.1573 23.0966C30.324 23.0966 30.4348 23.0426 30.4897 22.9347C30.5465 22.8248 30.5749 22.7064 30.5749 22.5795V22.2727C30.5749 22.1458 30.5484 22.0265 30.4954 21.9148C30.4424 21.8011 30.3297 21.7443 30.1573 21.7443C29.9982 21.7443 29.8893 21.8021 29.8306 21.9176C29.7738 22.0331 29.7454 22.1515 29.7454 22.2727ZM29.2596 27L33.2596 21.1818H34.0352L30.0352 27H29.2596Z" fill="#9FD402"/>
</svg>
