<svg width="50" height="50" viewBox="0 0 50 50" fill="none" xmlns="http://www.w3.org/2000/svg">
<path d="M24 6C26.3638 6 28.7044 6.46558 30.8883 7.37017C33.0722 8.27475 35.0565 9.60062 36.7279 11.2721C38.3994 12.9435 39.7252 14.9278 40.6298 17.1117C41.5344 19.2956 42 21.6362 42 24L38.04 24C38.04 22.1562 37.6768 20.3305 36.9713 18.6271C36.2657 16.9237 35.2315 15.376 33.9278 14.0722C32.624 12.7685 31.0763 11.7343 29.3729 11.0287C27.6695 10.3232 25.8438 9.96 24 9.96L24 6Z" fill="#9FD402"/>
<path d="M15.7493 27V25.9886L17.8714 24.1307C18.0305 23.9867 18.166 23.8551 18.2777 23.7358C18.3894 23.6146 18.4747 23.4934 18.5334 23.3722C18.5921 23.2491 18.6214 23.1155 18.6214 22.9716C18.6214 22.8106 18.5864 22.6733 18.5163 22.5597C18.4463 22.4441 18.3497 22.3551 18.2266 22.2926C18.1035 22.2301 17.9624 22.1989 17.8033 22.1989C17.6423 22.1989 17.5012 22.232 17.38 22.2983C17.2588 22.3627 17.1641 22.4564 17.0959 22.5795C17.0296 22.7027 16.9964 22.8523 16.9964 23.0284H15.6641C15.6641 22.6326 15.7531 22.2907 15.9311 22.0028C16.1091 21.715 16.3591 21.4934 16.6811 21.3381C17.005 21.1809 17.3809 21.1023 17.8089 21.1023C18.2502 21.1023 18.6338 21.1761 18.9595 21.3239C19.2853 21.4716 19.5372 21.678 19.7152 21.9432C19.8951 22.2064 19.9851 22.5123 19.9851 22.8608C19.9851 23.0824 19.9406 23.3021 19.8516 23.5199C19.7625 23.7377 19.6025 23.9782 19.3714 24.2415C19.1423 24.5047 18.8165 24.8201 18.3942 25.1875L17.6982 25.8295V25.8665H20.0561V27H15.7493ZM23.0781 27.0795C22.6539 27.0795 22.277 27.0028 21.9474 26.8494C21.6179 26.696 21.3575 26.4848 21.1662 26.2159C20.9768 25.947 20.8783 25.6383 20.8707 25.2898H22.2344C22.2457 25.5038 22.3329 25.6761 22.4957 25.8068C22.6586 25.9356 22.8527 26 23.0781 26C23.2543 26 23.4105 25.9612 23.5469 25.8835C23.6832 25.8059 23.7902 25.697 23.8679 25.5568C23.9455 25.4148 23.9834 25.2519 23.9815 25.0682C23.9834 24.8807 23.9446 24.7169 23.8651 24.5767C23.7874 24.4366 23.6795 24.3277 23.5412 24.25C23.4048 24.1705 23.2476 24.1307 23.0696 24.1307C22.901 24.1288 22.741 24.1657 22.5895 24.2415C22.4399 24.3172 22.3262 24.4205 22.2486 24.5511L21.0071 24.3182L21.2599 21.1818H24.9929V22.3153H22.4162L22.2827 23.6875H22.3168C22.4134 23.5265 22.5687 23.3939 22.7827 23.2898C22.9986 23.1837 23.2438 23.1307 23.5185 23.1307C23.867 23.1307 24.1776 23.2121 24.4503 23.375C24.7249 23.536 24.9408 23.7595 25.098 24.0455C25.2571 24.3314 25.3366 24.6591 25.3366 25.0284C25.3366 25.428 25.242 25.7822 25.0526 26.0909C24.8651 26.3996 24.6018 26.642 24.2628 26.8182C23.9257 26.9924 23.5308 27.0795 23.0781 27.0795ZM29.3672 25.9091V25.6023C29.3672 25.3636 29.4183 25.143 29.5206 24.9403C29.6248 24.7377 29.7753 24.5748 29.9723 24.4517C30.1693 24.3286 30.4098 24.267 30.6939 24.267C30.9837 24.267 31.227 24.3286 31.424 24.4517C31.6229 24.5729 31.7725 24.7348 31.8729 24.9375C31.9751 25.1383 32.0263 25.3598 32.0263 25.6023V25.9091C32.0263 26.1477 31.9751 26.3684 31.8729 26.571C31.7706 26.7737 31.62 26.9366 31.4212 27.0597C31.2223 27.1828 30.9799 27.2443 30.6939 27.2443C30.406 27.2443 30.1636 27.1828 29.9666 27.0597C29.7696 26.9366 29.62 26.7737 29.5178 26.571C29.4174 26.3684 29.3672 26.1477 29.3672 25.9091ZM30.2734 25.6023V25.9091C30.2734 26.0303 30.3028 26.1468 30.3615 26.2585C30.4221 26.3703 30.5329 26.4261 30.6939 26.4261C30.8587 26.4261 30.9695 26.3722 31.0263 26.2642C31.0831 26.1544 31.1115 26.036 31.1115 25.9091V25.6023C31.1115 25.4754 31.084 25.3561 31.0291 25.2443C30.9761 25.1307 30.8643 25.0739 30.6939 25.0739C30.5348 25.0739 30.425 25.1307 30.3643 25.2443C30.3037 25.3561 30.2734 25.4754 30.2734 25.6023ZM26.3501 22.5795V22.2727C26.3501 22.0303 26.4022 21.8087 26.5064 21.608C26.6125 21.4053 26.764 21.2434 26.9609 21.1222C27.1579 20.9991 27.3965 20.9375 27.6768 20.9375C27.9666 20.9375 28.21 20.9991 28.407 21.1222C28.6058 21.2434 28.7564 21.4053 28.8587 21.608C28.9609 21.8087 29.0121 22.0303 29.0121 22.2727V22.5795C29.0121 22.822 28.96 23.0436 28.8558 23.2443C28.7536 23.4451 28.603 23.6051 28.4041 23.7244C28.2053 23.8437 27.9628 23.9034 27.6768 23.9034C27.3909 23.9034 27.1484 23.8428 26.9496 23.7216C26.7526 23.6004 26.603 23.4394 26.5007 23.2386C26.4003 23.0379 26.3501 22.8182 26.3501 22.5795ZM27.2649 22.2727V22.5795C27.2649 22.7064 27.2943 22.8248 27.353 22.9347C27.4136 23.0426 27.5215 23.0966 27.6768 23.0966C27.8435 23.0966 27.9543 23.0426 28.0092 22.9347C28.0661 22.8248 28.0945 22.7064 28.0945 22.5795V22.2727C28.0945 22.1458 28.0679 22.0265 28.0149 21.9148C27.9619 21.8011 27.8492 21.7443 27.6768 21.7443C27.5178 21.7443 27.4089 21.8021 27.3501 21.9176C27.2933 22.0331 27.2649 22.1515 27.2649 22.2727ZM26.7791 27L30.7791 21.1818H31.5547L27.5547 27H26.7791Z" fill="#9FD402"/>
</svg>
