<svg width="50" height="50" viewBox="0 0 50 50" fill="none" xmlns="http://www.w3.org/2000/svg">
<path d="M24 6C26.3638 6 28.7044 6.46558 30.8883 7.37017C33.0722 8.27475 35.0565 9.60062 36.7279 11.2721C38.3994 12.9435 39.7252 14.9278 40.6298 17.1117C41.5344 19.2956 42 21.6362 42 24C42 26.3638 41.5344 28.7044 40.6298 30.8883C39.7252 33.0722 38.3994 35.0565 36.7279 36.7279C35.0565 38.3994 33.0722 39.7252 30.8883 40.6298C28.7044 41.5344 26.3638 42 24 42L24 38.04C25.8438 38.04 27.6695 37.6768 29.3729 36.9713C31.0763 36.2657 32.624 35.2315 33.9278 33.9278C35.2315 32.624 36.2657 31.0763 36.9713 29.3729C37.6768 27.6695 38.04 25.8438 38.04 24C38.04 22.1562 37.6768 20.3305 36.9713 18.6271C36.2657 16.9237 35.2315 15.376 33.9278 14.0722C32.624 12.7685 31.0763 11.7343 29.3729 11.0287C27.6695 10.3232 25.8438 9.96 24 9.96L24 6Z" fill="#9FD402"/>
<path d="M17.6914 27.0795C17.2672 27.0795 16.8903 27.0028 16.5607 26.8494C16.2312 26.696 15.9708 26.4848 15.7795 26.2159C15.5901 25.947 15.4916 25.6383 15.484 25.2898H16.8477C16.859 25.5038 16.9461 25.6761 17.109 25.8068C17.2719 25.9356 17.466 26 17.6914 26C17.8675 26 18.0238 25.9612 18.1602 25.8835C18.2965 25.8059 18.4035 25.697 18.4812 25.5568C18.5588 25.4148 18.5967 25.2519 18.5948 25.0682C18.5967 24.8807 18.5579 24.7169 18.4783 24.5767C18.4007 24.4366 18.2927 24.3277 18.1545 24.25C18.0181 24.1705 17.8609 24.1307 17.6829 24.1307C17.5143 24.1288 17.3543 24.1657 17.2028 24.2415C17.0531 24.3172 16.9395 24.4205 16.8619 24.5511L15.6204 24.3182L15.8732 21.1818H19.6062V22.3153H17.0295L16.896 23.6875H16.93C17.0266 23.5265 17.1819 23.3939 17.396 23.2898C17.6119 23.1837 17.8571 23.1307 18.1317 23.1307C18.4802 23.1307 18.7908 23.2121 19.0636 23.375C19.3382 23.536 19.5541 23.7595 19.7113 24.0455C19.8704 24.3314 19.9499 24.6591 19.9499 25.0284C19.9499 25.428 19.8552 25.7822 19.6658 26.0909C19.4783 26.3996 19.2151 26.642 18.8761 26.8182C18.5389 26.9924 18.1441 27.0795 17.6914 27.0795ZM23.1282 27.142C22.6206 27.142 22.1831 27.0218 21.8157 26.7812C21.4483 26.5388 21.1651 26.1913 20.9663 25.7386C20.7674 25.2841 20.6689 24.7377 20.6708 24.0994C20.6727 23.4612 20.7721 22.9195 20.9691 22.4744C21.168 22.0275 21.4502 21.6875 21.8157 21.4545C22.1831 21.2197 22.6206 21.1023 23.1282 21.1023C23.6358 21.1023 24.0733 21.2197 24.4407 21.4545C24.81 21.6875 25.0941 22.0275 25.293 22.4744C25.4918 22.9214 25.5903 23.4631 25.5884 24.0994C25.5884 24.7396 25.489 25.2869 25.2901 25.7415C25.0913 26.196 24.8081 26.5436 24.4407 26.7841C24.0752 27.0227 23.6377 27.142 23.1282 27.142ZM23.1282 25.9915C23.4312 25.9915 23.6765 25.8371 23.864 25.5284C24.0515 25.2178 24.1443 24.7415 24.1424 24.0994C24.1424 23.679 24.0998 23.3324 24.0146 23.0597C23.9293 22.785 23.811 22.5805 23.6594 22.446C23.5079 22.3116 23.3308 22.2443 23.1282 22.2443C22.8271 22.2443 22.5837 22.3968 22.3981 22.7017C22.2125 23.0047 22.1187 23.4706 22.1168 24.0994C22.1149 24.5256 22.1557 24.8788 22.239 25.1591C22.3242 25.4394 22.4435 25.6487 22.5969 25.7869C22.7504 25.9233 22.9274 25.9915 23.1282 25.9915ZM29.6523 25.9091V25.6023C29.6523 25.3636 29.7035 25.143 29.8058 24.9403C29.9099 24.7377 30.0605 24.5748 30.2575 24.4517C30.4544 24.3286 30.695 24.267 30.979 24.267C31.2688 24.267 31.5122 24.3286 31.7092 24.4517C31.908 24.5729 32.0576 24.7348 32.158 24.9375C32.2603 25.1383 32.3114 25.3598 32.3114 25.6023V25.9091C32.3114 26.1477 32.2603 26.3684 32.158 26.571C32.0558 26.7737 31.9052 26.9366 31.7063 27.0597C31.5075 27.1828 31.265 27.2443 30.979 27.2443C30.6912 27.2443 30.4487 27.1828 30.2518 27.0597C30.0548 26.9366 29.9052 26.7737 29.8029 26.571C29.7025 26.3684 29.6523 26.1477 29.6523 25.9091ZM30.5586 25.6023V25.9091C30.5586 26.0303 30.5879 26.1468 30.6467 26.2585C30.7073 26.3703 30.8181 26.4261 30.979 26.4261C31.1438 26.4261 31.2546 26.3722 31.3114 26.2642C31.3683 26.1544 31.3967 26.036 31.3967 25.9091V25.6023C31.3967 25.4754 31.3692 25.3561 31.3143 25.2443C31.2612 25.1307 31.1495 25.0739 30.979 25.0739C30.82 25.0739 30.7101 25.1307 30.6495 25.2443C30.5889 25.3561 30.5586 25.4754 30.5586 25.6023ZM26.6353 22.5795V22.2727C26.6353 22.0303 26.6874 21.8087 26.7915 21.608C26.8976 21.4053 27.0491 21.2434 27.2461 21.1222C27.4431 20.9991 27.6817 20.9375 27.962 20.9375C28.2518 20.9375 28.4951 20.9991 28.6921 21.1222C28.891 21.2434 29.0415 21.4053 29.1438 21.608C29.2461 21.8087 29.2972 22.0303 29.2972 22.2727V22.5795C29.2972 22.822 29.2451 23.0436 29.141 23.2443C29.0387 23.4451 28.8881 23.6051 28.6893 23.7244C28.4904 23.8437 28.248 23.9034 27.962 23.9034C27.676 23.9034 27.4336 23.8428 27.2347 23.7216C27.0378 23.6004 26.8881 23.4394 26.7859 23.2386C26.6855 23.0379 26.6353 22.8182 26.6353 22.5795ZM27.5501 22.2727V22.5795C27.5501 22.7064 27.5794 22.8248 27.6381 22.9347C27.6987 23.0426 27.8067 23.0966 27.962 23.0966C28.1287 23.0966 28.2395 23.0426 28.2944 22.9347C28.3512 22.8248 28.3796 22.7064 28.3796 22.5795V22.2727C28.3796 22.1458 28.3531 22.0265 28.3001 21.9148C28.247 21.8011 28.1344 21.7443 27.962 21.7443C27.8029 21.7443 27.694 21.8021 27.6353 21.9176C27.5785 22.0331 27.5501 22.1515 27.5501 22.2727ZM27.0643 27L31.0643 21.1818H31.8398L27.8398 27H27.0643Z" fill="#9FD402"/>
</svg>
