<svg width="50" height="50" viewBox="0 0 50 50" fill="none" xmlns="http://www.w3.org/2000/svg">
<path d="M24 6C27.0798 6 30.1081 6.79022 32.7952 8.29507C35.4823 9.79992 37.7383 11.9691 39.3475 14.595C40.9567 17.221 41.8652 20.2159 41.9861 23.2933C42.107 26.3707 41.4363 29.4277 40.0381 32.1718C38.6399 34.9159 36.561 37.2554 34.0003 38.9665C31.4395 40.6775 28.4826 41.7029 25.4123 41.9445C22.342 42.1862 19.261 41.636 16.4641 40.3466C13.6672 39.0572 11.248 37.0717 9.4377 34.5801L12.6414 32.2525C14.0534 34.196 15.9404 35.7446 18.122 36.7503C20.3036 37.7561 22.7067 38.1852 25.1016 37.9967C27.4964 37.8082 29.8028 37.0084 31.8002 35.6738C33.7976 34.3392 35.4191 32.5144 36.5097 30.374C37.6003 28.2336 38.1235 25.8492 38.0292 23.4488C37.9349 21.0484 37.2262 18.7124 35.9711 16.6641C34.7159 14.6159 32.9562 12.9239 30.8602 11.7502C28.7643 10.5764 26.4022 9.96 24 9.96L24 6Z" fill="#9FD402"/>
<path d="M17.734 27.0795C17.4158 27.0795 17.1109 27.0284 16.8192 26.9261C16.5276 26.822 16.2681 26.6572 16.0408 26.4318C15.8136 26.2045 15.6346 25.9072 15.5039 25.5398C15.3732 25.1705 15.3088 24.7206 15.3107 24.1903C15.3126 23.7112 15.3713 23.2812 15.4869 22.9006C15.6024 22.518 15.7672 22.1932 15.9812 21.9261C16.1971 21.6591 16.4547 21.4555 16.7539 21.3153C17.055 21.1733 17.3912 21.1023 17.7624 21.1023C18.1696 21.1023 18.5285 21.1818 18.8391 21.3409C19.1516 21.4981 19.4016 21.7102 19.5891 21.9773C19.7766 22.2424 19.8874 22.5379 19.9215 22.8636H18.538C18.4963 22.6799 18.4045 22.5407 18.2624 22.446C18.1223 22.3494 17.9556 22.3011 17.7624 22.3011C17.4064 22.3011 17.1403 22.4555 16.9641 22.7642C16.7899 23.0729 16.7009 23.4858 16.6971 24.0028H16.734C16.8136 23.8286 16.9281 23.679 17.0778 23.554C17.2274 23.429 17.3988 23.3333 17.592 23.267C17.7871 23.1989 17.9935 23.1648 18.2113 23.1648C18.5598 23.1648 18.8675 23.2453 19.1346 23.4062C19.4016 23.5672 19.6109 23.7879 19.7624 24.0682C19.9139 24.3466 19.9888 24.6657 19.9869 25.0256C19.9888 25.4309 19.8941 25.7888 19.7028 26.0994C19.5115 26.4081 19.2463 26.6487 18.9073 26.821C18.5702 26.9934 18.1791 27.0795 17.734 27.0795ZM17.7255 26C17.8978 26 18.0522 25.9593 18.1886 25.8778C18.3249 25.7964 18.4319 25.6856 18.5096 25.5455C18.5872 25.4053 18.6251 25.2472 18.6232 25.071C18.6251 24.893 18.5872 24.7348 18.5096 24.5966C18.4338 24.4583 18.3278 24.3485 18.1914 24.267C18.0569 24.1856 17.9026 24.1449 17.7283 24.1449C17.6014 24.1449 17.4831 24.1686 17.3732 24.2159C17.2634 24.2633 17.1677 24.3295 17.0863 24.4148C17.0067 24.4981 16.9442 24.5966 16.8988 24.7102C16.8533 24.822 16.8297 24.9432 16.8278 25.0739C16.8297 25.2462 16.8694 25.4025 16.9471 25.5426C17.0247 25.6828 17.1308 25.7945 17.2653 25.8778C17.3997 25.9593 17.5531 26 17.7255 26ZM23.1907 27.142C22.6831 27.142 22.2456 27.0218 21.8782 26.7812C21.5108 26.5388 21.2276 26.1913 21.0288 25.7386C20.8299 25.2841 20.7314 24.7377 20.7333 24.0994C20.7352 23.4612 20.8346 22.9195 21.0316 22.4744C21.2305 22.0275 21.5127 21.6875 21.8782 21.4545C22.2456 21.2197 22.6831 21.1023 23.1907 21.1023C23.6983 21.1023 24.1358 21.2197 24.5032 21.4545C24.8725 21.6875 25.1566 22.0275 25.3555 22.4744C25.5543 22.9214 25.6528 23.4631 25.6509 24.0994C25.6509 24.7396 25.5515 25.2869 25.3526 25.7415C25.1538 26.196 24.8706 26.5436 24.5032 26.7841C24.1377 27.0227 23.7002 27.142 23.1907 27.142ZM23.1907 25.9915C23.4937 25.9915 23.739 25.8371 23.9265 25.5284C24.114 25.2178 24.2068 24.7415 24.2049 24.0994C24.2049 23.679 24.1623 23.3324 24.0771 23.0597C23.9918 22.785 23.8735 22.5805 23.7219 22.446C23.5704 22.3116 23.3933 22.2443 23.1907 22.2443C22.8896 22.2443 22.6462 22.3968 22.4606 22.7017C22.275 23.0047 22.1812 23.4706 22.1793 24.0994C22.1774 24.5256 22.2182 24.8788 22.3015 25.1591C22.3867 25.4394 22.506 25.6487 22.6594 25.7869C22.8129 25.9233 22.9899 25.9915 23.1907 25.9915ZM29.7148 25.9091V25.6023C29.7148 25.3636 29.766 25.143 29.8683 24.9403C29.9724 24.7377 30.123 24.5748 30.32 24.4517C30.5169 24.3286 30.7575 24.267 31.0415 24.267C31.3313 24.267 31.5747 24.3286 31.7717 24.4517C31.9705 24.5729 32.1201 24.7348 32.2205 24.9375C32.3228 25.1383 32.3739 25.3598 32.3739 25.6023V25.9091C32.3739 26.1477 32.3228 26.3684 32.2205 26.571C32.1183 26.7737 31.9677 26.9366 31.7688 27.0597C31.57 27.1828 31.3275 27.2443 31.0415 27.2443C30.7537 27.2443 30.5112 27.1828 30.3143 27.0597C30.1173 26.9366 29.9677 26.7737 29.8654 26.571C29.765 26.3684 29.7148 26.1477 29.7148 25.9091ZM30.6211 25.6023V25.9091C30.6211 26.0303 30.6504 26.1468 30.7092 26.2585C30.7698 26.3703 30.8806 26.4261 31.0415 26.4261C31.2063 26.4261 31.3171 26.3722 31.3739 26.2642C31.4308 26.1544 31.4592 26.036 31.4592 25.9091V25.6023C31.4592 25.4754 31.4317 25.3561 31.3768 25.2443C31.3237 25.1307 31.212 25.0739 31.0415 25.0739C30.8825 25.0739 30.7726 25.1307 30.712 25.2443C30.6514 25.3561 30.6211 25.4754 30.6211 25.6023ZM26.6978 22.5795V22.2727C26.6978 22.0303 26.7499 21.8087 26.854 21.608C26.9601 21.4053 27.1116 21.2434 27.3086 21.1222C27.5056 20.9991 27.7442 20.9375 28.0245 20.9375C28.3143 20.9375 28.5576 20.9991 28.7546 21.1222C28.9535 21.2434 29.104 21.4053 29.2063 21.608C29.3086 21.8087 29.3597 22.0303 29.3597 22.2727V22.5795C29.3597 22.822 29.3076 23.0436 29.2035 23.2443C29.1012 23.4451 28.9506 23.6051 28.7518 23.7244C28.5529 23.8437 28.3105 23.9034 28.0245 23.9034C27.7385 23.9034 27.4961 23.8428 27.2972 23.7216C27.1003 23.6004 26.9506 23.4394 26.8484 23.2386C26.748 23.0379 26.6978 22.8182 26.6978 22.5795ZM27.6126 22.2727V22.5795C27.6126 22.7064 27.6419 22.8248 27.7006 22.9347C27.7612 23.0426 27.8692 23.0966 28.0245 23.0966C28.1912 23.0966 28.302 23.0426 28.3569 22.9347C28.4137 22.8248 28.4421 22.7064 28.4421 22.5795V22.2727C28.4421 22.1458 28.4156 22.0265 28.3626 21.9148C28.3095 21.8011 28.1969 21.7443 28.0245 21.7443C27.8654 21.7443 27.7565 21.8021 27.6978 21.9176C27.641 22.0331 27.6126 22.1515 27.6126 22.2727ZM27.1268 27L31.1268 21.1818H31.9023L27.9023 27H27.1268Z" fill="#9FD402"/>
</svg>
