<svg width="50" height="50" viewBox="0 0 50 50" fill="none" xmlns="http://www.w3.org/2000/svg">
<path d="M24 6C27.5601 6 31.0402 7.05568 34.0003 9.03355C36.9603 11.0114 39.2675 13.8226 40.6298 17.1117C41.9922 20.4008 42.3487 24.02 41.6541 27.5116C40.9596 31.0033 39.2453 34.2106 36.7279 36.7279C34.2106 39.2453 31.0033 40.9596 27.5116 41.6541C24.02 42.3487 20.4008 41.9922 17.1117 40.6298C13.8226 39.2675 11.0114 36.9603 9.03355 34.0003C7.05568 31.0402 6 27.5601 6 24L9.96 24C9.96 26.7768 10.7834 29.4913 12.3262 31.8002C13.8689 34.1091 16.0617 35.9086 18.6271 36.9713C21.1926 38.0339 24.0156 38.312 26.7391 37.7702C29.4626 37.2285 31.9642 35.8913 33.9278 33.9278C35.8913 31.9642 37.2285 29.4626 37.7702 26.7391C38.312 24.0156 38.0339 21.1926 36.9713 18.6271C35.9086 16.0617 34.1091 13.8689 31.8002 12.3262C29.4913 10.7834 26.7768 9.96 24 9.96L24 6Z" fill="#9FD402"/>
<path d="M16.1761 27L18.5227 22.3523V22.3153H15.7784V21.1818H19.9773V22.3239L17.6222 27H16.1761ZM22.8984 27.0795C22.4742 27.0795 22.0973 27.0028 21.7678 26.8494C21.4382 26.696 21.1778 26.4848 20.9865 26.2159C20.7971 25.947 20.6986 25.6383 20.6911 25.2898H22.0547C22.0661 25.5038 22.1532 25.6761 22.3161 25.8068C22.4789 25.9356 22.6731 26 22.8984 26C23.0746 26 23.2308 25.9612 23.3672 25.8835C23.5036 25.8059 23.6106 25.697 23.6882 25.5568C23.7659 25.4148 23.8037 25.2519 23.8018 25.0682C23.8037 24.8807 23.7649 24.7169 23.6854 24.5767C23.6077 24.4366 23.4998 24.3277 23.3615 24.25C23.2251 24.1705 23.0679 24.1307 22.8899 24.1307C22.7214 24.1288 22.5613 24.1657 22.4098 24.2415C22.2602 24.3172 22.1465 24.4205 22.0689 24.5511L20.8274 24.3182L21.0803 21.1818H24.8132V22.3153H22.2365L22.103 23.6875H22.1371C22.2337 23.5265 22.389 23.3939 22.603 23.2898C22.8189 23.1837 23.0642 23.1307 23.3388 23.1307C23.6873 23.1307 23.9979 23.2121 24.2706 23.375C24.5452 23.536 24.7611 23.7595 24.9183 24.0455C25.0774 24.3314 25.157 24.6591 25.157 25.0284C25.157 25.428 25.0623 25.7822 24.8729 26.0909C24.6854 26.3996 24.4221 26.642 24.0831 26.8182C23.746 26.9924 23.3511 27.0795 22.8984 27.0795ZM29.1875 25.9091V25.6023C29.1875 25.3636 29.2386 25.143 29.3409 24.9403C29.4451 24.7377 29.5956 24.5748 29.7926 24.4517C29.9896 24.3286 30.2301 24.267 30.5142 24.267C30.804 24.267 31.0473 24.3286 31.2443 24.4517C31.4432 24.5729 31.5928 24.7348 31.6932 24.9375C31.7955 25.1383 31.8466 25.3598 31.8466 25.6023V25.9091C31.8466 26.1477 31.7955 26.3684 31.6932 26.571C31.5909 26.7737 31.4403 26.9366 31.2415 27.0597C31.0426 27.1828 30.8002 27.2443 30.5142 27.2443C30.2263 27.2443 29.9839 27.1828 29.7869 27.0597C29.59 26.9366 29.4403 26.7737 29.3381 26.571C29.2377 26.3684 29.1875 26.1477 29.1875 25.9091ZM30.0938 25.6023V25.9091C30.0938 26.0303 30.1231 26.1468 30.1818 26.2585C30.2424 26.3703 30.3532 26.4261 30.5142 26.4261C30.679 26.4261 30.7898 26.3722 30.8466 26.2642C30.9034 26.1544 30.9318 26.036 30.9318 25.9091V25.6023C30.9318 25.4754 30.9044 25.3561 30.8494 25.2443C30.7964 25.1307 30.6847 25.0739 30.5142 25.0739C30.3551 25.0739 30.2453 25.1307 30.1847 25.2443C30.1241 25.3561 30.0938 25.4754 30.0938 25.6023ZM26.1705 22.5795V22.2727C26.1705 22.0303 26.2225 21.8087 26.3267 21.608C26.4328 21.4053 26.5843 21.2434 26.7812 21.1222C26.9782 20.9991 27.2169 20.9375 27.4972 20.9375C27.7869 20.9375 28.0303 20.9991 28.2273 21.1222C28.4261 21.2434 28.5767 21.4053 28.679 21.608C28.7813 21.8087 28.8324 22.0303 28.8324 22.2727V22.5795C28.8324 22.822 28.7803 23.0436 28.6761 23.2443C28.5739 23.4451 28.4233 23.6051 28.2244 23.7244C28.0256 23.8437 27.7831 23.9034 27.4972 23.9034C27.2112 23.9034 26.9688 23.8428 26.7699 23.7216C26.5729 23.6004 26.4233 23.4394 26.321 23.2386C26.2206 23.0379 26.1705 22.8182 26.1705 22.5795ZM27.0852 22.2727V22.5795C27.0852 22.7064 27.1146 22.8248 27.1733 22.9347C27.2339 23.0426 27.3419 23.0966 27.4972 23.0966C27.6638 23.0966 27.7746 23.0426 27.8295 22.9347C27.8864 22.8248 27.9148 22.7064 27.9148 22.5795V22.2727C27.9148 22.1458 27.8883 22.0265 27.8352 21.9148C27.7822 21.8011 27.6695 21.7443 27.4972 21.7443C27.3381 21.7443 27.2292 21.8021 27.1705 21.9176C27.1136 22.0331 27.0852 22.1515 27.0852 22.2727ZM26.5994 27L30.5994 21.1818H31.375L27.375 27H26.5994Z" fill="#9FD402"/>
</svg>
