<svg width="46" height="29" viewBox="0 0 46 29" fill="none" xmlns="http://www.w3.org/2000/svg">
<g id="categoria">
<path id="accion" d="M5.57568 0.429199L2.80417 6.7876H42.2868L42.2603 0.429293H16.6128V5.63918H15.1547V0.429293H13.5332V5.63918H12.0755V0.429293H10.3807V5.63918H8.9225V0.429293L5.57568 0.429199ZM43.2778 1.92457V5.73419H45.0945V1.92457H43.2778ZM3.39133 8.19292L5.39059 11.1926L0.681641 27.6692L10.5662 28.3414L12.6601 19.1597H23.9114L25.3369 11.6405L42.3053 11.2776L42.2927 8.19302L3.39133 8.19292ZM23.4823 11.6802L22.3965 17.4089H13.0593L14.3211 11.8762L15.5391 11.8502L15.3229 15.1764L16.7094 16.4484L16.8069 13.2955L19.207 11.7717L23.4823 11.6802Z" fill="#F5D221"/>
</g>
</svg>
