<svg width="52" height="33" viewBox="0 0 52 33" fill="none" xmlns="http://www.w3.org/2000/svg">
<g id="categoria">
<path id="RPG" d="M21.1967 0.390625C20.8266 2.24716 21.5179 4.24475 23.5781 6.37302C24.3602 5.86895 25.7849 5.61657 27.0698 5.8088C23.8574 4.26618 22.4258 2.55001 21.1967 0.390625ZM10.0503 0.822087C11.0538 4.03455 13.6747 7.88728 17.0625 10.6185C14.5421 10.4595 11.4987 9.5675 9.32192 8.86914C11.065 11.303 13.8032 12.5269 16.5387 13.4534C14.7949 14.6773 12.6901 15.9219 9.31494 16.1293C13.1307 17.4569 16.825 16.7447 18.4871 16.1777C17.237 18.5909 11.4533 20.7551 9.94555 21.5019C13.665 21.7923 18.4452 20.7413 21.6087 19.227C22.3071 20.928 21.497 22.9055 20.9034 24.6065C20.7707 24.9176 20.638 25.2218 20.5053 25.5261C20.8615 25.2841 21.2107 25.0421 21.5459 24.7931C23.194 23.673 24.884 22.5874 25.7011 20.7274C27.5238 22.8848 30.0797 25.0213 33.1734 26.6324C34.3885 28.1605 35.1497 30.0205 35.5618 31.7353C36.1414 30.4146 36.5255 28.9556 36.2392 27.5658C37.9501 27.3169 38.7253 25.5122 38.7183 23.8044C37.8384 24.2331 37.6638 24.24 36.5395 24.3714C36.5395 23.673 36.5814 23.507 36.33 22.3869C35.6107 22.9677 34.8634 23.1613 34.179 23.2028C34.3257 22.6773 34.3885 21.8545 34.4374 21.3152C33.5296 21.8061 33.0966 21.9859 32.3354 22.0619C32.3075 21.3083 32.3284 20.679 32.0491 19.9599C29.982 21.2737 28.6551 20.0636 27.3003 18.4872C28.683 17.3117 34.0324 16.9798 33.9416 18.9781C34.9193 18.4733 35.2545 18.2037 35.5897 17.8787C36.2252 18.4664 36.5255 19.3238 36.6442 20.0498C37.2937 19.3999 37.3635 19.3238 37.8384 18.4042C38.2365 19.1025 38.453 19.5796 38.5856 20.52C39.1792 20.0913 39.6611 19.6142 39.9684 19.0403C40.4921 20.1121 40.548 20.1466 40.8343 21.3221C42.0774 20.4163 42.3567 19.1648 42.4266 18.0308C42.5662 15.749 42.4056 10.5494 40.2617 8.15003C40.3804 10.66 39.3468 12.9902 37.9013 13.73C37.0213 14.0688 31.1622 8.57182 28.2919 7.27881C26.6508 6.57354 24.9329 7.76974 23.5571 7.92186C18.2776 6.32462 13.8479 3.88658 10.0503 0.822087ZM28.69 9.54675C29.6188 10.9919 30.9387 12.0982 32.8871 13.3497C31.5323 13.5502 28.2919 12.8864 27.4609 11.6902C27.0768 11.144 27.9567 10.2175 28.69 9.54675ZM20.624 21.0455C19.6184 21.4742 18.5849 21.7992 17.5653 22.0343C17.3977 22.2832 17.244 22.5252 17.0974 22.7603C18.1309 23.1268 19.2972 23.2443 20.1771 22.9539C20.4076 22.2763 20.5612 21.6194 20.624 21.0455ZM15.8753 22.3662L15.1629 22.4699C12.9415 25.0006 10.8401 29.6056 11.7941 32.9729H14.3172C13.5407 30.3662 13.1629 26.9505 15.8753 22.3662ZM16.4689 23.8528C16.0568 24.641 15.7426 25.3809 15.5051 26.0723C16.406 26.5356 17.5373 26.6877 18.6337 26.6393C18.955 25.9133 19.3181 25.1319 19.6533 24.3368C18.5779 24.4612 17.4605 24.24 16.4689 23.8528ZM24.2485 24.3091C23.4105 25.0351 22.4886 25.7128 21.5319 26.3558C22.0207 28.7067 23.8644 30.7396 26.6927 32.9729H32.51C28.5154 30.7741 25.9036 27.9046 24.2485 24.3091ZM15.1699 27.2962C14.9953 28.1121 14.9395 28.8658 14.9604 29.571C17.5653 30.5529 19.3251 30.5045 21.7693 29.8545C21.2665 29.1423 20.8615 28.4025 20.5891 27.6212C18.3055 28.2711 16.7203 28.0153 15.1699 27.2962ZM22.6143 30.9194C19.9536 31.673 17.8097 31.8321 15.1071 30.9401C15.2328 31.6592 15.4213 32.3299 15.6308 32.9729H24.7164C23.9272 32.2953 23.2219 31.6177 22.6143 30.9194Z" fill="#F5D221"/>
</g>
</svg>
