<svg width="407" height="90" viewBox="0 0 407 90" fill="none" xmlns="http://www.w3.org/2000/svg">
<path d="M40.1375 23.1024H84.5438V65.1245H40.1375V23.1024Z" fill="#F7F7F7"/>
<path fill-rule="evenodd" clip-rule="evenodd" d="M83.275 24.3758H41.4063V63.8512H83.275V24.3758ZM40.1375 23.1024V65.1245H84.5438V23.1024H40.1375Z" fill="#262626"/>
<path d="M104.312 38.4429V51.1172H102.708L97.6513 41.3416V51.1172H96.0554V38.4429H97.6513L102.734 48.2446V38.4429H104.312Z" fill="#262626"/>
<path d="M108.85 46.8605V45.9639C108.85 45.2327 108.943 44.5914 109.128 44.0401C109.313 43.483 109.57 43.0187 109.9 42.6473C110.229 42.2759 110.614 41.9974 111.053 41.8117C111.493 41.6202 111.964 41.5244 112.467 41.5244C112.982 41.5244 113.459 41.6202 113.898 41.8117C114.337 41.9974 114.722 42.2759 115.052 42.6473C115.387 43.0187 115.647 43.483 115.832 44.0401C116.017 44.5914 116.11 45.2327 116.11 45.9639V46.8605C116.11 47.5917 116.017 48.2359 115.832 48.793C115.647 49.3443 115.39 49.8056 115.06 50.177C114.731 50.5484 114.346 50.827 113.907 51.0127C113.467 51.1984 112.993 51.2913 112.484 51.2913C111.976 51.2913 111.501 51.1984 111.062 51.0127C110.623 50.827 110.235 50.5484 109.9 50.177C109.57 49.8056 109.313 49.3443 109.128 48.793C108.943 48.2359 108.85 47.5917 108.85 46.8605ZM110.385 45.9639V46.8605C110.385 47.377 110.437 47.8296 110.542 48.2184C110.646 48.6073 110.793 48.9322 110.984 49.1934C111.175 49.4545 111.397 49.6518 111.652 49.7853C111.906 49.913 112.184 49.9768 112.484 49.9768C112.831 49.9768 113.135 49.913 113.395 49.7853C113.661 49.6518 113.881 49.4545 114.054 49.1934C114.228 48.9322 114.358 48.6073 114.444 48.2184C114.531 47.8296 114.575 47.377 114.575 46.8605V45.9639C114.575 45.4474 114.523 44.9976 114.418 44.6146C114.314 44.2258 114.167 43.9008 113.976 43.6397C113.785 43.3727 113.56 43.1754 113.3 43.0478C113.045 42.9143 112.768 42.8475 112.467 42.8475C112.172 42.8475 111.897 42.9143 111.643 43.0478C111.389 43.1754 111.166 43.3727 110.975 43.6397C110.79 43.9008 110.646 44.2258 110.542 44.6146C110.437 44.9976 110.385 45.4474 110.385 45.9639Z" fill="#262626"/>
<path d="M131.335 48.7059C131.335 48.468 131.277 48.2591 131.162 48.0792C131.046 47.8993 130.855 47.7252 130.589 47.5569C130.329 47.3886 129.976 47.2087 129.531 47.0172C129.097 46.8373 128.707 46.6603 128.36 46.4862C128.019 46.3063 127.73 46.1119 127.493 45.9029C127.256 45.694 127.074 45.4532 126.947 45.1804C126.825 44.9019 126.764 44.574 126.764 44.1968C126.764 43.8196 126.834 43.4714 126.973 43.1522C127.117 42.8272 127.32 42.5429 127.58 42.2991C127.84 42.0554 128.152 41.8668 128.516 41.7333C128.881 41.594 129.288 41.5244 129.739 41.5244C130.381 41.5244 130.928 41.6492 131.379 41.8987C131.83 42.1483 132.174 42.4906 132.411 42.9259C132.653 43.3553 132.775 43.8399 132.775 44.3796H131.248C131.248 44.1185 131.191 43.8718 131.075 43.6397C130.959 43.4076 130.789 43.2189 130.563 43.0739C130.338 42.923 130.063 42.8475 129.739 42.8475C129.398 42.8475 129.121 42.9085 128.907 43.0303C128.693 43.1522 128.537 43.3118 128.438 43.5091C128.346 43.7006 128.3 43.9124 128.3 44.1446C128.3 44.3187 128.323 44.4695 128.369 44.5972C128.421 44.7191 128.508 44.8352 128.629 44.9454C128.751 45.0499 128.915 45.1601 129.124 45.2762C129.337 45.3865 129.609 45.5141 129.939 45.6592C130.575 45.9088 131.11 46.1612 131.543 46.4165C131.977 46.6719 132.307 46.9707 132.532 47.3131C132.758 47.6555 132.87 48.0792 132.87 48.584C132.87 48.9961 132.795 49.3704 132.645 49.707C132.5 50.0378 132.292 50.3221 132.02 50.5601C131.749 50.798 131.422 50.9808 131.04 51.1085C130.664 51.2303 130.242 51.2913 129.774 51.2913C129.069 51.2913 128.47 51.152 127.979 50.8734C127.493 50.5891 127.123 50.2206 126.868 49.7679C126.62 49.3095 126.496 48.8191 126.496 48.2968H128.031C128.048 48.7378 128.146 49.0802 128.326 49.324C128.511 49.5677 128.733 49.736 128.993 49.8288C129.254 49.9217 129.514 49.9681 129.774 49.9681C130.115 49.9681 130.401 49.9188 130.633 49.8201C130.864 49.7157 131.037 49.5677 131.153 49.3762C131.274 49.1847 131.335 48.9613 131.335 48.7059Z" fill="#262626"/>
<path d="M136.871 46.8605V45.9639C136.871 45.2327 136.963 44.5914 137.148 44.0401C137.333 43.483 137.591 43.0187 137.92 42.6473C138.25 42.2759 138.634 41.9974 139.074 41.8117C139.513 41.6202 139.984 41.5244 140.487 41.5244C141.002 41.5244 141.479 41.6202 141.918 41.8117C142.358 41.9974 142.742 42.2759 143.072 42.6473C143.407 43.0187 143.667 43.483 143.853 44.0401C144.038 44.5914 144.13 45.2327 144.13 45.9639V46.8605C144.13 47.5917 144.038 48.2359 143.853 48.793C143.667 49.3443 143.41 49.8056 143.081 50.177C142.751 50.5484 142.367 50.827 141.927 51.0127C141.488 51.1984 141.014 51.2913 140.505 51.2913C139.996 51.2913 139.522 51.1984 139.082 51.0127C138.643 50.827 138.255 50.5484 137.92 50.177C137.591 49.8056 137.333 49.3443 137.148 48.793C136.963 48.2359 136.871 47.5917 136.871 46.8605ZM138.406 45.9639V46.8605C138.406 47.377 138.458 47.8296 138.562 48.2184C138.666 48.6073 138.813 48.9322 139.004 49.1934C139.195 49.4545 139.418 49.6518 139.672 49.7853C139.926 49.913 140.204 49.9768 140.505 49.9768C140.852 49.9768 141.155 49.913 141.415 49.7853C141.681 49.6518 141.901 49.4545 142.075 49.1934C142.248 48.9322 142.378 48.6073 142.465 48.2184C142.552 47.8296 142.595 47.377 142.595 46.8605V45.9639C142.595 45.4474 142.543 44.9976 142.439 44.6146C142.335 44.2258 142.187 43.9008 141.996 43.6397C141.806 43.3727 141.58 43.1754 141.32 43.0478C141.066 42.9143 140.788 42.8475 140.487 42.8475C140.192 42.8475 139.918 42.9143 139.663 43.0478C139.409 43.1754 139.186 43.3727 138.996 43.6397C138.811 43.9008 138.666 44.2258 138.562 44.6146C138.458 44.9976 138.406 45.4474 138.406 45.9639Z" fill="#262626"/>
<path d="M150.455 50.1422L152.545 41.6985H154.176L151.079 52.5709C151.004 52.803 150.903 53.0525 150.776 53.3195C150.654 53.5922 150.498 53.8505 150.307 54.0942C150.117 54.338 149.888 54.5353 149.622 54.6862C149.356 54.8428 149.044 54.9212 148.685 54.9212C148.576 54.9212 148.434 54.9038 148.261 54.869C148.093 54.8341 147.971 54.8051 147.896 54.7819V53.4762C147.931 53.482 147.986 53.4878 148.061 53.4936C148.136 53.5052 148.191 53.511 148.226 53.511C148.526 53.511 148.781 53.4617 148.989 53.363C149.203 53.2702 149.385 53.1106 149.535 52.8842C149.686 52.6637 149.813 52.3591 149.917 51.9702L150.455 50.1422ZM149.102 41.6985L150.967 49.0106L151.365 50.708L150.273 51.3L147.428 41.6985H149.102Z" fill="#262626"/>
<path d="M169.123 48.9409V41.6985H170.659V51.1172H169.202L169.123 48.9409ZM169.41 46.9562L170.017 46.9388C170.017 47.5656 169.962 48.1459 169.852 48.6798C169.748 49.2079 169.574 49.6664 169.332 50.0552C169.095 50.444 168.779 50.7487 168.386 50.9692C167.993 51.1839 167.51 51.2913 166.938 51.2913C166.55 51.2913 166.198 51.2245 165.88 51.091C165.568 50.9576 165.296 50.7516 165.064 50.473C164.839 50.1944 164.663 49.8317 164.535 49.3849C164.414 48.938 164.353 48.4012 164.353 47.7745V41.6985H165.88V47.7919C165.88 48.2155 165.917 48.5666 165.992 48.8452C166.068 49.1179 166.169 49.3356 166.296 49.4981C166.423 49.6547 166.565 49.765 166.721 49.8288C166.877 49.8927 167.036 49.9246 167.198 49.9246C167.742 49.9246 168.175 49.794 168.499 49.5329C168.823 49.2659 169.054 48.909 169.193 48.4622C169.337 48.0095 169.41 47.5075 169.41 46.9562Z" fill="#262626"/>
<path d="M176.81 43.7093V51.1172H175.275V41.6985H176.723L176.81 43.7093ZM176.437 46.0509L175.813 46.0248C175.807 45.3807 175.879 44.7858 176.029 44.2403C176.185 43.689 176.405 43.2102 176.688 42.804C176.978 42.3978 177.322 42.0844 177.721 41.8639C178.12 41.6376 178.562 41.5244 179.048 41.5244C179.429 41.5244 179.776 41.5882 180.088 41.7159C180.401 41.8378 180.667 42.0351 180.886 42.3078C181.106 42.5806 181.274 42.9346 181.389 43.3698C181.511 43.7993 181.571 44.3245 181.571 44.9454V51.1172H180.036V44.928C180.036 44.4347 179.981 44.0401 179.872 43.7441C179.767 43.4424 179.606 43.2248 179.386 43.0913C179.172 42.952 178.9 42.8824 178.571 42.8824C178.27 42.8824 177.989 42.9665 177.729 43.1348C177.469 43.3031 177.241 43.5352 177.044 43.8312C176.853 44.1272 176.703 44.4666 176.593 44.8497C176.489 45.2269 176.437 45.6273 176.437 46.0509Z" fill="#262626"/>
<path d="M194.108 43.1783V51.1172H192.573V41.6985H194.056L194.108 43.1783ZM196.441 41.6463L196.45 43.1435C196.323 43.1145 196.207 43.0971 196.103 43.0913C196.005 43.0797 195.889 43.0739 195.756 43.0739C195.467 43.0739 195.213 43.1319 194.993 43.248C194.779 43.364 194.594 43.5265 194.438 43.7354C194.282 43.9444 194.157 44.1939 194.065 44.4841C193.972 44.7684 193.909 45.0818 193.874 45.4242L193.475 45.6853C193.475 45.1166 193.518 44.5827 193.605 44.0836C193.698 43.5846 193.839 43.1435 194.03 42.7605C194.221 42.3717 194.464 42.0699 194.759 41.8552C195.059 41.6347 195.418 41.5244 195.834 41.5244C195.927 41.5244 196.039 41.5389 196.172 41.5679C196.311 41.5911 196.401 41.6173 196.441 41.6463Z" fill="#262626"/>
<path d="M199.8 46.8605V45.9639C199.8 45.2327 199.892 44.5914 200.077 44.0401C200.262 43.483 200.52 43.0187 200.849 42.6473C201.179 42.2759 201.563 41.9974 202.003 41.8117C202.442 41.6202 202.914 41.5244 203.417 41.5244C203.931 41.5244 204.408 41.6202 204.848 41.8117C205.287 41.9974 205.672 42.2759 206.001 42.6473C206.336 43.0187 206.597 43.483 206.782 44.0401C206.967 44.5914 207.059 45.2327 207.059 45.9639V46.8605C207.059 47.5917 206.967 48.2359 206.782 48.793C206.597 49.3443 206.339 49.8056 206.01 50.177C205.68 50.5484 205.296 50.827 204.856 51.0127C204.417 51.1984 203.943 51.2913 203.434 51.2913C202.925 51.2913 202.451 51.1984 202.012 51.0127C201.572 50.827 201.185 50.5484 200.849 50.177C200.52 49.8056 200.262 49.3443 200.077 48.793C199.892 48.2359 199.8 47.5917 199.8 46.8605ZM201.335 45.9639V46.8605C201.335 47.377 201.387 47.8296 201.491 48.2184C201.595 48.6073 201.743 48.9322 201.933 49.1934C202.124 49.4545 202.347 49.6518 202.601 49.7853C202.856 49.913 203.133 49.9768 203.434 49.9768C203.781 49.9768 204.084 49.913 204.345 49.7853C204.611 49.6518 204.83 49.4545 205.004 49.1934C205.177 48.9322 205.307 48.6073 205.394 48.2184C205.481 47.8296 205.524 47.377 205.524 46.8605V45.9639C205.524 45.4474 205.472 44.9976 205.368 44.6146C205.264 44.2258 205.116 43.9008 204.926 43.6397C204.735 43.3727 204.509 43.1754 204.249 43.0478C203.995 42.9143 203.717 42.8475 203.417 42.8475C203.122 42.8475 202.847 42.9143 202.593 43.0478C202.338 43.1754 202.116 43.3727 201.925 43.6397C201.74 43.9008 201.595 44.2258 201.491 44.6146C201.387 44.9976 201.335 45.4474 201.335 45.9639Z" fill="#262626"/>
<path d="M211.346 37.7465H212.881V49.2891L212.751 51.1172H211.346V37.7465ZM218.146 45.9813V46.8605C218.146 47.6033 218.076 48.2533 217.937 48.8104C217.804 49.3617 217.605 49.823 217.339 50.1944C217.073 50.5601 216.749 50.8357 216.368 51.0214C215.986 51.2013 215.549 51.2913 215.058 51.2913C214.572 51.2913 214.153 51.1926 213.8 50.9953C213.448 50.798 213.153 50.5136 212.916 50.1422C212.679 49.7708 212.491 49.3211 212.352 48.793C212.219 48.2649 212.126 47.67 212.074 47.0085V45.8333C212.126 45.1659 212.219 44.5682 212.352 44.0401C212.485 43.5062 212.67 43.0536 212.907 42.6821C213.144 42.3049 213.439 42.0177 213.792 41.8204C214.144 41.6231 214.564 41.5244 215.049 41.5244C215.547 41.5244 215.986 41.6115 216.368 41.7855C216.755 41.9596 217.079 42.2295 217.339 42.5951C217.605 42.9549 217.804 43.4163 217.937 43.9792C218.076 44.5363 218.146 45.2037 218.146 45.9813ZM216.61 46.8605V45.9813C216.61 45.459 216.576 45.0034 216.506 44.6146C216.443 44.2258 216.336 43.9037 216.185 43.6484C216.035 43.393 215.833 43.2015 215.578 43.0739C215.33 42.9462 215.02 42.8824 214.65 42.8824C214.338 42.8824 214.063 42.9462 213.826 43.0739C213.595 43.2015 213.396 43.3756 213.228 43.5962C213.06 43.8109 212.921 44.0575 212.812 44.3361C212.702 44.6088 212.621 44.8932 212.569 45.1891V47.6613C212.644 48.0385 212.762 48.4012 212.924 48.7494C213.092 49.0918 213.318 49.3733 213.601 49.5938C213.884 49.8143 214.237 49.9246 214.659 49.9246C215.012 49.9246 215.309 49.8637 215.552 49.7418C215.801 49.6199 216.003 49.4342 216.159 49.1847C216.316 48.9293 216.428 48.6102 216.498 48.2271C216.573 47.8383 216.61 47.3828 216.61 46.8605Z" fill="#262626"/>
<path d="M222.094 46.8605V45.9639C222.094 45.2327 222.186 44.5914 222.371 44.0401C222.556 43.483 222.814 43.0187 223.143 42.6473C223.473 42.2759 223.857 41.9974 224.297 41.8117C224.736 41.6202 225.208 41.5244 225.711 41.5244C226.225 41.5244 226.702 41.6202 227.142 41.8117C227.581 41.9974 227.966 42.2759 228.295 42.6473C228.631 43.0187 228.891 43.483 229.076 44.0401C229.261 44.5914 229.353 45.2327 229.353 45.9639V46.8605C229.353 47.5917 229.261 48.2359 229.076 48.793C228.891 49.3443 228.633 49.8056 228.304 50.177C227.974 50.5484 227.59 50.827 227.15 51.0127C226.711 51.1984 226.237 51.2913 225.728 51.2913C225.219 51.2913 224.745 51.1984 224.306 51.0127C223.866 50.827 223.479 50.5484 223.143 50.177C222.814 49.8056 222.556 49.3443 222.371 48.793C222.186 48.2359 222.094 47.5917 222.094 46.8605ZM223.629 45.9639V46.8605C223.629 47.377 223.681 47.8296 223.785 48.2184C223.889 48.6073 224.037 48.9322 224.227 49.1934C224.418 49.4545 224.641 49.6518 224.895 49.7853C225.15 49.913 225.427 49.9768 225.728 49.9768C226.075 49.9768 226.378 49.913 226.639 49.7853C226.905 49.6518 227.124 49.4545 227.298 49.1934C227.471 48.9322 227.601 48.6073 227.688 48.2184C227.775 47.8296 227.818 47.377 227.818 46.8605V45.9639C227.818 45.4474 227.766 44.9976 227.662 44.6146C227.558 44.2258 227.41 43.9008 227.22 43.6397C227.029 43.3727 226.803 43.1754 226.543 43.0478C226.289 42.9143 226.011 42.8475 225.711 42.8475C225.416 42.8475 225.141 42.9143 224.887 43.0478C224.632 43.1754 224.41 43.3727 224.219 43.6397C224.034 43.9008 223.889 44.2258 223.785 44.6146C223.681 44.9976 223.629 45.4474 223.629 45.9639Z" fill="#262626"/>
<path d="M237.066 41.6985V42.9346H232.686V41.6985H237.066ZM234.117 39.4091H235.652V48.7843C235.652 49.1034 235.69 49.3443 235.765 49.5068C235.846 49.6693 235.947 49.7766 236.068 49.8288C236.19 49.8811 236.32 49.9072 236.459 49.9072C236.563 49.9072 236.678 49.8956 236.806 49.8724C236.933 49.8434 237.019 49.8201 237.066 49.8027L237.057 51.1172C236.953 51.1578 236.814 51.1955 236.641 51.2303C236.467 51.2709 236.248 51.2913 235.982 51.2913C235.652 51.2913 235.346 51.2129 235.062 51.0562C234.779 50.8995 234.551 50.6384 234.377 50.2728C234.204 49.9014 234.117 49.4023 234.117 48.7756V39.4091Z" fill="#262626"/>
<path d="M348.021 38.8613L347.991 37.5272V12.2968L341.367 19.2722C335.946 12.2848 327.699 7.82166 318.462 7.82166C308.849 7.82166 300.309 12.6534 294.907 20.1329L305.764 31.6857C306.831 29.6166 308.343 27.8411 310.165 26.4895C312.061 24.9317 314.747 23.6582 318.462 23.6582C318.911 23.6582 319.257 23.713 319.512 23.8175C324.115 24.2 328.105 26.8752 330.453 30.7578L322.765 38.854L348.017 38.8592" fill="#1C3AA9"/>
<path d="M318.29 7.82275L317.022 7.85819H293.063L299.687 14.8332C293.051 20.5348 288.812 29.222 288.812 38.9494C288.812 49.0687 293.401 58.0651 300.504 63.7502L311.475 52.3175C309.511 51.1981 307.822 49.6125 306.541 47.6864C305.062 45.6903 303.852 42.8623 303.852 38.9501C303.852 38.4774 303.904 38.1128 304.003 37.8447C304.366 32.9976 306.907 28.7957 310.594 26.3225L318.279 34.415L318.284 7.82422" fill="#4285F4"/>
<path d="M288.813 38.9486L288.844 40.2828V65.5124L295.467 58.5374C300.889 65.5248 309.136 69.9879 318.373 69.9879C327.983 69.9879 336.526 65.1562 341.925 57.6767L331.068 46.1238C330.005 48.1918 328.499 49.9708 326.67 51.3198C324.774 52.8775 322.089 54.151 318.373 54.151C317.925 54.151 317.578 54.0962 317.324 53.9917C312.721 53.6092 308.73 50.934 306.382 47.0514L314.067 38.9588C304.332 38.9954 293.336 39.0228 288.815 38.9537" fill="#ABABAB"/>
<path d="M293.847 71.496C293.179 71.496 292.579 71.6208 292.049 71.87C291.523 72.1107 291.061 72.4689 290.7 72.9163C290.337 73.3695 290.057 73.9201 289.862 74.5664C289.668 75.2073 289.576 75.9246 289.576 76.7217V79.0102C289.576 79.8099 289.671 80.53 289.862 81.1709C290.057 81.8118 290.334 82.3589 290.691 82.8128C291.049 83.2667 291.481 83.6153 291.988 83.8588C292.496 84.1022 293.066 84.2245 293.7 84.2245C294.352 84.2245 294.922 84.131 295.412 83.9437C295.908 83.7535 296.323 83.4873 296.657 83.1355C296.992 82.7782 297.248 82.3472 297.43 81.8422C297.615 81.3376 297.724 80.7646 297.759 80.1243H296.156C296.116 80.6178 296.046 81.0435 295.948 81.3922C295.85 81.7408 295.707 82.0245 295.516 82.248C295.332 82.4692 295.09 82.6337 294.79 82.7415C294.496 82.8435 294.133 82.8946 293.701 82.8946C293.24 82.8946 292.848 82.7954 292.525 82.5966C292.203 82.3925 291.94 82.1148 291.739 81.763C291.543 81.4143 291.398 81.0004 291.306 80.5269C291.22 80.0562 291.177 79.5487 291.177 79.0042V76.6989C291.177 76.1147 291.228 75.5845 291.332 75.1077C291.442 74.6313 291.606 74.226 291.825 73.8912C292.044 73.5565 292.321 73.2985 292.655 73.1172C292.989 72.927 293.387 72.8364 293.848 72.8364C294.235 72.8364 294.565 72.8934 294.842 73.0066C295.119 73.1144 295.349 73.2846 295.534 73.5137C295.718 73.7407 295.856 74.0297 295.957 74.3813C296.059 74.7328 296.119 75.1524 296.156 75.6402H297.756C297.723 74.9746 297.62 74.3787 297.436 73.8652C297.251 73.3518 296.994 72.9153 296.663 72.5638C296.331 72.2123 295.934 71.9457 295.461 71.7641C294.994 71.5825 294.455 71.4915 293.844 71.4915L293.847 71.496ZM332.891 71.496C332.222 71.496 331.623 71.6208 331.093 71.87C330.566 72.1107 330.105 72.4689 329.744 72.9163C329.381 73.3695 329.101 73.9201 328.905 74.5664C328.712 75.2073 328.62 75.9246 328.62 76.7217V79.0102C328.62 79.8099 328.715 80.53 328.905 81.1709C329.101 81.8118 329.378 82.3589 329.735 82.8128C330.092 83.2667 330.524 83.6153 331.032 83.8588C331.54 84.1022 332.11 84.2245 332.744 84.2245C333.395 84.2245 333.966 84.131 334.456 83.9437C334.952 83.7535 335.367 83.4873 335.701 83.1355C336.035 82.7782 336.292 82.3472 336.474 81.8422C336.659 81.3376 336.768 80.7646 336.803 80.1243H335.203C335.163 80.6178 335.094 81.0435 334.996 81.3922C334.898 81.7408 334.754 82.0245 334.563 82.248C334.379 82.4692 334.137 82.6337 333.837 82.7415C333.544 82.8435 333.18 82.8946 332.748 82.8946C332.288 82.8946 331.895 82.7954 331.573 82.5966C331.25 82.3925 330.988 82.1148 330.786 81.763C330.59 81.4143 330.446 81.0004 330.354 80.5269C330.267 80.0562 330.224 79.5487 330.224 79.0042V76.6989C330.224 76.1147 330.275 75.5845 330.379 75.1077C330.489 74.6313 330.653 74.226 330.872 73.8912C331.091 73.5565 331.368 73.2985 331.702 73.1172C332.037 72.927 332.434 72.8364 332.895 72.8364C333.282 72.8364 333.613 72.8934 333.89 73.0066C334.167 73.1144 334.397 73.2846 334.581 73.5137C334.766 73.7407 334.903 74.0297 335.005 74.3813C335.106 74.7328 335.166 75.1524 335.204 75.6402H336.803C336.771 74.9746 336.668 74.3787 336.483 73.8652C336.299 73.3518 336.042 72.9153 335.71 72.5638C335.378 72.2123 334.981 71.9457 334.508 71.7641C334.041 71.5825 333.503 71.4915 332.891 71.4915L332.891 71.496ZM302.964 71.6662L298.905 84.0515H300.531L301.508 80.8191H305.761L306.755 84.0515H308.381L304.317 71.6662H302.964ZM310.096 71.6662V84.0515H311.675V79.2029H314.103C314.709 79.2029 315.245 79.1205 315.712 78.9563C316.179 78.7861 316.57 78.5423 316.887 78.2248C317.21 77.9072 317.452 77.516 317.614 77.0507C317.781 76.58 317.864 76.0469 317.864 75.4516C317.864 74.9014 317.78 74.3968 317.614 73.9375C317.452 73.4725 317.213 73.0728 316.896 72.7381C316.579 72.398 316.187 72.1343 315.712 71.947C315.244 71.7568 314.709 71.6662 314.103 71.6662H310.096ZM319.079 71.6662V73.0101H322.381V84.0515H323.96V73.0101H327.271V71.6662H319.079ZM338.938 71.6662V84.0515H340.516V78.3265H345.579V84.0515H347.17V71.6662H345.579V76.9911H340.513V71.6662H338.938ZM353.176 71.6662L349.121 84.0515H350.747L351.724 80.8191H355.977L356.971 84.0515H358.594L354.53 71.6662H353.176ZM311.678 73.0101H314.107C314.493 73.0101 314.821 73.0782 315.092 73.2142C315.358 73.341 315.589 73.5276 315.767 73.7587C315.945 73.9857 316.075 74.2494 316.156 74.5499C316.242 74.8447 316.286 75.1512 316.286 75.4691C316.286 75.8177 316.243 76.1442 316.156 76.439C316.075 76.7281 315.945 76.9778 315.767 77.1997C315.594 77.4095 315.369 77.5737 315.092 77.6932C314.822 77.8124 314.493 77.872 314.107 77.872H311.678V73.0101ZM303.638 73.8437L305.358 79.4749H301.922L303.638 73.8437ZM353.85 73.8437L355.57 79.4749H352.135L353.85 73.8437ZM279.379 74.6773C278.981 74.6773 278.638 74.7765 278.35 74.9753C278.067 75.1737 277.834 75.4431 277.641 75.7835L277.615 74.8478H276.125V84.0518H277.655V77.4675C277.799 77.0761 278.004 76.7702 278.269 76.5404C278.539 76.3135 278.883 76.2003 279.298 76.2003L279.652 76.2174C279.765 76.2244 279.878 76.2386 279.989 76.2599L279.981 74.7968C279.958 74.7854 279.92 74.774 279.868 74.7629C279.817 74.7446 279.765 74.7304 279.712 74.7204C279.654 74.709 279.594 74.7004 279.531 74.6951C279.473 74.6836 279.421 74.6779 279.375 74.6779L279.379 74.6773ZM284.523 74.6773C284.083 74.6767 283.646 74.7546 283.234 74.9071C282.815 75.0602 282.45 75.3128 282.128 75.6678C281.811 76.0165 281.554 76.4675 281.354 77.0288C281.158 77.5845 281.061 78.265 281.061 79.079V80.1167C281.061 80.8197 281.144 81.4296 281.311 81.9456C281.478 82.4616 281.717 82.8901 282.029 83.2302C282.346 83.5649 282.729 83.8144 283.179 83.9789C283.628 84.1434 284.132 84.2255 284.692 84.2255C285.095 84.2255 285.455 84.1859 285.773 84.1063C286.095 84.0271 286.381 83.9247 286.628 83.8001C286.877 83.6695 287.089 83.5221 287.268 83.3576C287.447 83.1931 287.6 83.0229 287.726 82.8505L286.931 81.8977C286.804 82.0508 286.668 82.1925 286.525 82.3231C286.381 82.448 286.222 82.5586 286.049 82.6549C285.868 82.7471 285.677 82.8184 285.479 82.8673C285.272 82.9212 285.038 82.944 284.779 82.944C284.07 82.944 283.522 82.7199 283.145 82.272C282.77 81.8242 282.583 81.1066 282.583 80.1167V79.9043H287.802V79.0283C287.802 78.3252 287.741 77.704 287.62 77.1651C287.499 76.6263 287.306 76.1731 287.041 75.8041C286.783 75.4413 286.431 75.1533 286.021 74.9705C285.606 74.7778 285.104 74.6814 284.516 74.6814L284.523 74.6773ZM284.523 75.9705C284.857 75.9705 285.134 76.0301 285.352 76.1493C285.569 76.2662 285.749 76.4398 285.871 76.651C286.004 76.8666 286.099 77.1246 286.157 77.4251C286.22 77.7198 286.26 78.0463 286.278 78.4032V78.6073H282.592C282.615 78.0913 282.678 77.6628 282.785 77.3227C282.892 76.9826 283.024 76.7132 283.191 76.5144C283.364 76.3103 283.563 76.1658 283.788 76.0891C284.012 76.0124 284.257 75.9699 284.522 75.9699L284.523 75.9705Z" fill="#A6A6A6"/>
</svg>
