<svg width="51" height="33" viewBox="0 0 51 33" fill="none" xmlns="http://www.w3.org/2000/svg">
<g id="categoria">
<path id="deportes" d="M28.1698 0.233304C26.7446 0.238456 25.3283 0.376472 23.9695 0.603793C17.0816 1.75601 13.1992 4.77761 11.1042 9.0209C13.5833 8.83089 16.0284 8.62871 18.4082 8.64323C20.3233 8.65494 22.1962 8.80693 24.0105 9.21856C25.2137 9.49178 25.9684 10.5181 26.2031 11.6959C26.4377 12.8737 26.2712 14.2657 25.8016 15.7203L25.7788 15.7909L25.7416 15.8553C25.1252 16.9201 23.8147 17.7677 22.1443 18.6652C20.4739 19.5627 18.4358 20.4367 16.4046 21.1966C14.3735 21.9565 12.3532 22.6002 10.7201 23.0262C10.1439 23.1764 9.62009 23.2978 9.1527 23.3897C9.33338 25.8198 9.67386 28.3374 10.1064 30.8822C21.2346 27.8963 31.8279 24.6459 42.1533 21.2606C44.2131 17.7901 44.5301 14.5122 43.5008 11.3673C41.7224 5.93373 38.6641 3.0108 35.1446 1.51823C32.945 0.58537 30.5451 0.224717 28.1699 0.233304H28.1698ZM15.128 10.1534C14.4084 10.1933 13.6774 10.2437 12.9414 10.2968L9.49914 21.8771C9.76789 21.8154 10.05 21.7473 10.3532 21.6682C10.6712 21.5852 11.01 21.491 11.3587 21.3907C12.1546 18.9653 14.7976 11.132 15.128 10.1534ZM11.419 10.4081C10.5559 10.4726 9.68577 10.5372 8.80548 10.5931C8.78006 10.6278 8.74877 10.667 8.7008 10.7701C8.57532 11.0394 8.43276 11.5053 8.31069 12.0756C8.06647 13.2163 7.8842 14.7865 7.77817 16.3595C7.67231 17.9325 7.64078 19.5162 7.68343 20.6984C7.70471 21.2895 7.74617 21.7839 7.79795 22.1004C7.80176 22.1243 7.80414 22.1248 7.80827 22.1465C7.84481 22.1457 7.89032 22.143 7.93106 22.1415L11.419 10.4081ZM22.5789 10.4497C21.3402 10.4497 20.3027 11.4319 20.3027 12.6473C20.3027 13.8628 21.3402 14.8452 22.5789 14.8452C23.8175 14.8452 24.8551 13.8629 24.8551 12.6473C24.8551 11.4319 23.8175 10.4497 22.5789 10.4497ZM22.5789 11.8548C23.0649 11.8548 23.4255 12.2113 23.4255 12.6473C23.4255 13.0834 23.0649 13.4401 22.5789 13.4401C22.0928 13.4401 21.7323 13.0833 21.7323 12.6473C21.7323 12.2113 22.0928 11.8548 22.5789 11.8548ZM40.8607 23.1635C31.0279 26.3631 20.9337 29.437 10.3524 32.2731C10.3852 32.454 10.4168 32.6345 10.4503 32.8155C22.1733 30.7351 30.7798 27.4318 39.9438 24.2938C40.2709 23.9146 40.575 23.5381 40.8608 23.1634L40.8607 23.1635Z" fill="#F5D221"/>
</g>
</svg>
