<svg width="50" height="50" viewBox="0 0 50 50" fill="none" xmlns="http://www.w3.org/2000/svg">
<path d="M0 2.08333C0 0.932741 0.93274 0 2.08333 0H47.9167C49.0673 0 50 0.93274 50 2.08333V47.9167C50 49.0673 49.0673 50 47.9167 50H2.08333C0.932741 50 0 49.0673 0 47.9167V2.08333Z" fill="#9FD402"/>
<path d="M24.8611 20.8333H28.3333V15.8333H33.5417V12.5H28.3333V7.5H24.8611V12.5H19.6528V15.8333H24.8611V20.8333ZM17.9167 35.8333C16.0069 35.8333 14.4618 37.3333 14.4618 39.1667C14.4618 41 16.0069 42.5 17.9167 42.5C19.8264 42.5 21.3889 41 21.3889 39.1667C21.3889 37.3333 19.8264 35.8333 17.9167 35.8333ZM35.2778 35.8333C33.3681 35.8333 31.8229 37.3333 31.8229 39.1667C31.8229 41 33.3681 42.5 35.2778 42.5C37.1875 42.5 38.75 41 38.75 39.1667C38.75 37.3333 37.1875 35.8333 35.2778 35.8333ZM19.8264 27.5H32.7604C34.0625 27.5 35.2083 26.8167 35.7986 25.7833L42.5 14.1L39.4618 12.5L32.7604 24.1667H20.5729L13.1771 9.16667H7.5V12.5H10.9722L17.2222 25.15L14.8785 29.2167C13.6111 31.45 15.2778 34.1667 17.9167 34.1667H38.75V30.8333H17.9167L19.8264 27.5Z" fill="#F7F7F7"/>
</svg>
