<?xml version="1.0" standalone="no"?>
<!DOCTYPE svg PUBLIC "-//W3C//DTD SVG 20010904//EN"
 "http://www.w3.org/TR/2001/REC-SVG-20010904/DTD/svg10.dtd">
<svg version="1.0" xmlns="http://www.w3.org/2000/svg"
 width="1280.000000pt" height="1280.000000pt" viewBox="0 0 1280.000000 1280.000000"
 preserveAspectRatio="xMidYMid meet">
<metadata>
Created by potrace 1.15, written by Peter Selinger 2001-2017
</metadata>
<g transform="translate(0.000000,1280.000000) scale(0.100000,-0.100000)"
fill="#add1d2" stroke="none">
<path d="M6057 12789 c-1760 -96 -3397 -908 -4537 -2250 -1187 -1398 -1715
-3231 -1454 -5049 213 -1490 944 -2853 2069 -3858 767 -685 1685 -1176 2670
-1427 1273 -325 2614 -254 3835 202 1937 723 3413 2348 3945 4343 317 1189
283 2454 -97 3628 -172 531 -432 1072 -743 1542 -949 1436 -2434 2432 -4115
2759 -515 100 -1059 138 -1573 110z"/>
</g>
</svg>
