<svg width="26" height="26" viewBox="0 0 26 26" fill="none" xmlns="http://www.w3.org/2000/svg">
<path fill-rule="evenodd" clip-rule="evenodd" d="M0.783166 0.60041C0.978428 0.405149 1.29501 0.405149 1.49027 0.600411L13.1368 12.2469L24.7832 0.600412C24.9784 0.405149 25.295 0.405148 25.4903 0.600409C25.6855 0.795671 25.6855 1.11225 25.4903 1.30752L13.8439 12.954L25.4903 24.6004C25.6855 24.7957 25.6855 25.1123 25.4903 25.3075C25.295 25.5028 24.9784 25.5028 24.7832 25.3075L13.1368 13.6611L1.49027 25.3075C1.29501 25.5028 0.978426 25.5028 0.783164 25.3075C0.587903 25.1123 0.587904 24.7957 0.783166 24.6004L12.4296 12.954L0.783165 1.30752C0.587903 1.11225 0.587903 0.795672 0.783166 0.60041Z" fill="#F7F7F7"/>
</svg>
