<svg width="52" height="34" viewBox="0 0 52 34" fill="none" xmlns="http://www.w3.org/2000/svg">
<g id="categoria">
<path id="Layer 2" d="M16.7365 18.9149H8.62427C8.93706 21.9773 10.1269 24.8897 12.0557 27.3143C14.6519 25.2063 16.3271 22.2002 16.7365 18.9149ZM12.0557 7.25732C10.1298 9.67726 8.94012 12.5836 8.62427 15.6403H16.7532C16.342 12.3563 14.6597 9.35419 12.0557 7.25732ZM36.0261 4.85048C33.4451 2.67335 30.248 1.32494 26.8644 0.98645V15.6403H30.2959C30.7109 11.4496 32.7654 7.58109 36.0261 4.85048ZM20.0847 15.6403H23.5329V0.98645C20.1415 1.32634 16.9379 2.68075 14.3545 4.86686C17.6226 7.58471 19.6793 11.4514 20.0847 15.6403ZM38.3415 27.3143C40.2703 24.8897 41.4602 21.9773 41.773 18.9149H33.6607C34.0702 22.2002 35.7454 25.2063 38.3415 27.3143ZM41.773 15.6403C41.4571 12.5836 40.2674 9.67726 38.3415 7.25732C35.7491 9.36135 34.0742 12.3609 33.6607 15.6403H41.773ZM30.2959 18.9149H26.8644V33.5688C30.248 33.2303 33.4451 31.8819 36.0261 29.7047C32.7654 26.9741 30.7109 23.1056 30.2959 18.9149ZM14.3712 29.7047C16.9521 31.8819 20.1492 33.2303 23.5329 33.5688V18.9149H20.1014C19.6864 23.1056 17.6319 26.9741 14.3712 29.7047Z" fill="#F5D221"/>
</g>
</svg>
