<svg width="27" height="24" viewBox="0 0 27 24" fill="none" xmlns="http://www.w3.org/2000/svg">
<g id="Group">
<path id="Vector" d="M24.5455 9.6V0H0V19.2H15.9545V13.2C15.9545 11.208 17.5991 9.6 19.6364 9.6H24.5455ZM12.2727 10.8L2.45455 4.8V2.4L12.2727 8.4L22.0909 2.4V4.8L12.2727 10.8Z" fill="#F7F7F7"/>
<path id="Vector_2" d="M24.5455 14.4V19.2C24.5455 20.52 23.441 21.6 22.091 21.6C20.741 21.6 19.6364 20.52 19.6364 19.2V13.8C19.6364 13.464 19.9064 13.2 20.2501 13.2C20.5937 13.2 20.8637 13.464 20.8637 13.8V19.2H23.3182V13.8C23.3182 12.144 21.9437 10.8 20.2501 10.8C18.5564 10.8 17.1819 12.144 17.1819 13.8V19.2C17.1819 21.852 19.3787 24 22.091 24C24.8032 24 27.0001 21.852 27.0001 19.2V14.4H24.5455Z" fill="#F7F7F7"/>
</g>
</svg>
