<svg width="82" height="24" viewBox="0 0 82 24" fill="none" xmlns="http://www.w3.org/2000/svg">
<g id="Property 1=3">
<g id="Vector" filter="url(#filter0_d_341_4414)">
<path d="M10.4288 12.7133L14.2545 15.2L13.2392 10.5133L16.6192 7.35999L12.1683 6.95333L10.4288 2.53333L8.68923 6.95333L4.23828 7.35999L7.61828 10.5133L6.60304 15.2L10.4288 12.7133Z" fill="url(#paint0_linear_341_4414)" shape-rendering="crispEdges"/>
</g>
<g id="Vector_2" filter="url(#filter1_d_341_4414)">
<path d="M26.524 12.7133L30.3497 15.2L29.3344 10.5133L32.7144 7.35999L28.2635 6.95333L26.524 2.53333L24.7844 6.95333L20.3335 7.35999L23.7135 10.5133L22.6983 15.2L26.524 12.7133Z" fill="url(#paint1_linear_341_4414)" shape-rendering="crispEdges"/>
</g>
<g id="Vector_3" filter="url(#filter2_d_341_4414)">
<path d="M64.9049 7.35999L60.4539 6.94666L58.7144 2.53333L56.9749 6.95333L52.5239 7.35999L55.9039 10.5133L54.8887 15.2L58.7144 12.7133L62.5401 15.2L61.5311 10.5133L64.9049 7.35999ZM58.7144 11.4667L56.3868 12.98L57.0058 10.1267L54.9506 8.20666L57.662 7.95333L58.7144 5.26666L59.773 7.95999L62.4844 8.21333L60.4292 10.1333L61.0482 12.9867L58.7144 11.4667Z" fill="#F5D221"/>
</g>
<g id="Vector_4" filter="url(#filter3_d_341_4414)">
<path d="M81.0001 7.35999L76.5491 6.94666L74.8096 2.53333L73.0701 6.95333L68.6191 7.35999L71.9991 10.5133L70.9839 15.2L74.8096 12.7133L78.6353 15.2L77.6263 10.5133L81.0001 7.35999ZM74.8096 11.4667L72.482 12.98L73.101 10.1267L71.0458 8.20666L73.7572 7.95333L74.8096 5.26666L75.8682 7.95999L78.5796 8.21333L76.5244 10.1333L77.1434 12.9867L74.8096 11.4667Z" fill="#F5D221"/>
</g>
<g id="Vector_5" filter="url(#filter4_d_341_4414)">
<path d="M42.6192 12.7133L46.4449 15.2L45.4297 10.5133L48.8097 7.35999L44.3587 6.95333L42.6192 2.53333L40.8797 6.95333L36.4287 7.35999L39.8087 10.5133L38.7935 15.2L42.6192 12.7133Z" fill="url(#paint2_linear_341_4414)" shape-rendering="crispEdges"/>
</g>
</g>
<defs>
<filter id="filter0_d_341_4414" x="0.238281" y="2.53333" width="20.3809" height="20.6667" filterUnits="userSpaceOnUse" color-interpolation-filters="sRGB">
<feFlood flood-opacity="0" result="BackgroundImageFix"/>
<feColorMatrix in="SourceAlpha" type="matrix" values="0 0 0 0 0 0 0 0 0 0 0 0 0 0 0 0 0 0 127 0" result="hardAlpha"/>
<feOffset dy="4"/>
<feGaussianBlur stdDeviation="2"/>
<feComposite in2="hardAlpha" operator="out"/>
<feColorMatrix type="matrix" values="0 0 0 0 0 0 0 0 0 0 0 0 0 0 0 0 0 0 0.25 0"/>
<feBlend mode="normal" in2="BackgroundImageFix" result="effect1_dropShadow_341_4414"/>
<feBlend mode="normal" in="SourceGraphic" in2="effect1_dropShadow_341_4414" result="shape"/>
</filter>
<filter id="filter1_d_341_4414" x="16.3335" y="2.53333" width="20.3809" height="20.6667" filterUnits="userSpaceOnUse" color-interpolation-filters="sRGB">
<feFlood flood-opacity="0" result="BackgroundImageFix"/>
<feColorMatrix in="SourceAlpha" type="matrix" values="0 0 0 0 0 0 0 0 0 0 0 0 0 0 0 0 0 0 127 0" result="hardAlpha"/>
<feOffset dy="4"/>
<feGaussianBlur stdDeviation="2"/>
<feComposite in2="hardAlpha" operator="out"/>
<feColorMatrix type="matrix" values="0 0 0 0 0 0 0 0 0 0 0 0 0 0 0 0 0 0 0.25 0"/>
<feBlend mode="normal" in2="BackgroundImageFix" result="effect1_dropShadow_341_4414"/>
<feBlend mode="normal" in="SourceGraphic" in2="effect1_dropShadow_341_4414" result="shape"/>
</filter>
<filter id="filter2_d_341_4414" x="48.5239" y="2.53333" width="20.3809" height="20.6667" filterUnits="userSpaceOnUse" color-interpolation-filters="sRGB">
<feFlood flood-opacity="0" result="BackgroundImageFix"/>
<feColorMatrix in="SourceAlpha" type="matrix" values="0 0 0 0 0 0 0 0 0 0 0 0 0 0 0 0 0 0 127 0" result="hardAlpha"/>
<feOffset dy="4"/>
<feGaussianBlur stdDeviation="2"/>
<feComposite in2="hardAlpha" operator="out"/>
<feColorMatrix type="matrix" values="0 0 0 0 0 0 0 0 0 0 0 0 0 0 0 0 0 0 0.25 0"/>
<feBlend mode="normal" in2="BackgroundImageFix" result="effect1_dropShadow_341_4414"/>
<feBlend mode="normal" in="SourceGraphic" in2="effect1_dropShadow_341_4414" result="shape"/>
</filter>
<filter id="filter3_d_341_4414" x="64.6191" y="2.53333" width="20.3809" height="20.6667" filterUnits="userSpaceOnUse" color-interpolation-filters="sRGB">
<feFlood flood-opacity="0" result="BackgroundImageFix"/>
<feColorMatrix in="SourceAlpha" type="matrix" values="0 0 0 0 0 0 0 0 0 0 0 0 0 0 0 0 0 0 127 0" result="hardAlpha"/>
<feOffset dy="4"/>
<feGaussianBlur stdDeviation="2"/>
<feComposite in2="hardAlpha" operator="out"/>
<feColorMatrix type="matrix" values="0 0 0 0 0 0 0 0 0 0 0 0 0 0 0 0 0 0 0.25 0"/>
<feBlend mode="normal" in2="BackgroundImageFix" result="effect1_dropShadow_341_4414"/>
<feBlend mode="normal" in="SourceGraphic" in2="effect1_dropShadow_341_4414" result="shape"/>
</filter>
<filter id="filter4_d_341_4414" x="32.4287" y="2.53333" width="20.3809" height="20.6667" filterUnits="userSpaceOnUse" color-interpolation-filters="sRGB">
<feFlood flood-opacity="0" result="BackgroundImageFix"/>
<feColorMatrix in="SourceAlpha" type="matrix" values="0 0 0 0 0 0 0 0 0 0 0 0 0 0 0 0 0 0 127 0" result="hardAlpha"/>
<feOffset dy="4"/>
<feGaussianBlur stdDeviation="2"/>
<feComposite in2="hardAlpha" operator="out"/>
<feColorMatrix type="matrix" values="0 0 0 0 0 0 0 0 0 0 0 0 0 0 0 0 0 0 0.25 0"/>
<feBlend mode="normal" in2="BackgroundImageFix" result="effect1_dropShadow_341_4414"/>
<feBlend mode="normal" in="SourceGraphic" in2="effect1_dropShadow_341_4414" result="shape"/>
</filter>
<linearGradient id="paint0_linear_341_4414" x1="10.4288" y1="2.53333" x2="10.4288" y2="15.2" gradientUnits="userSpaceOnUse">
<stop offset="0.494792" stop-color="#F5D221"/>
<stop offset="0.932292" stop-color="#F5D221"/>
<stop offset="1" stop-color="#F5D221" stop-opacity="0"/>
</linearGradient>
<linearGradient id="paint1_linear_341_4414" x1="26.524" y1="2.53333" x2="26.524" y2="15.2" gradientUnits="userSpaceOnUse">
<stop offset="0.494792" stop-color="#F5D221"/>
<stop offset="0.932292" stop-color="#F5D221"/>
<stop offset="1" stop-color="#F5D221" stop-opacity="0"/>
</linearGradient>
<linearGradient id="paint2_linear_341_4414" x1="42.6192" y1="2.53333" x2="42.6192" y2="15.2" gradientUnits="userSpaceOnUse">
<stop offset="0.494792" stop-color="#F5D221"/>
<stop offset="0.932292" stop-color="#F5D221"/>
<stop offset="1" stop-color="#F5D221" stop-opacity="0"/>
</linearGradient>
</defs>
</svg>
