<svg width="27" height="27" viewBox="0 0 27 27" fill="none" xmlns="http://www.w3.org/2000/svg">
<g id="redes">
<path id="Vector" d="M21 0H6C2.6865 0 0 2.6865 0 6V21C0 24.3135 2.6865 27 6 27H14.4315V16.5585H10.917V12.471H14.4315V9.4635C14.4315 5.9775 16.563 4.077 19.674 4.077C20.7225 4.074 21.7695 4.128 22.812 4.2345V7.8795H20.67C18.975 7.8795 18.645 8.6805 18.645 9.8625V12.465H22.695L22.1685 16.5525H18.621V27H21C24.3135 27 27 24.3135 27 21V6C27 2.6865 24.3135 0 21 0Z" fill="#F7F7F7"/>
</g>
</svg>
