<svg width="27" height="27" viewBox="0 0 27 27" fill="none" xmlns="http://www.w3.org/2000/svg">
<g id="redes">
<path id="instagram" d="M7.5 0C3.3585 0 0 3.3585 0 7.5V19.5C0 23.6415 3.3585 27 7.5 27H19.5C23.6415 27 27 23.6415 27 19.5V7.5C27 3.3585 23.6415 0 19.5 0H7.5ZM22.5 3C23.328 3 24 3.672 24 4.5C24 5.328 23.328 6 22.5 6C21.672 6 21 5.328 21 4.5C21 3.672 21.672 3 22.5 3ZM13.5 6C17.6415 6 21 9.3585 21 13.5C21 17.6415 17.6415 21 13.5 21C9.3585 21 6 17.6415 6 13.5C6 9.3585 9.3585 6 13.5 6ZM13.5 9C12.3065 9 11.1619 9.47411 10.318 10.318C9.47411 11.1619 9 12.3065 9 13.5C9 14.6935 9.47411 15.8381 10.318 16.682C11.1619 17.5259 12.3065 18 13.5 18C14.6935 18 15.8381 17.5259 16.682 16.682C17.5259 15.8381 18 14.6935 18 13.5C18 12.3065 17.5259 11.1619 16.682 10.318C15.8381 9.47411 14.6935 9 13.5 9Z" fill="#F7F7F7"/>
</g>
</svg>
