<svg width="150" height="150" viewBox="0 0 150 150" fill="none" xmlns="http://www.w3.org/2000/svg">
<g clip-path="url(#clip0_833_552)" filter="url(#filter0_d_833_552)">
<path fill-rule="evenodd" clip-rule="evenodd" d="M70.3168 36.0567V49.0376C70.3168 51.6247 72.4175 53.725 75.0051 53.725C77.5926 53.725 79.6933 51.6247 79.6933 49.0376V36.0567C79.6933 33.4696 77.5926 31.3693 75.0051 31.3693C72.4175 31.3693 70.3168 33.4696 70.3168 36.0567Z" fill="#9FD402"/>
<path fill-rule="evenodd" clip-rule="evenodd" d="M99.2195 44.1522L90.0408 53.3309C88.2115 55.1602 88.2118 58.1307 90.0415 59.9604C91.8711 61.79 94.8417 61.7903 96.671 59.961L105.85 50.7823C107.679 48.953 107.679 45.9825 105.849 44.1528C104.019 42.3232 101.049 42.3229 99.2195 44.1522Z" fill="#9FD402"/>
<path fill-rule="evenodd" clip-rule="evenodd" d="M111.779 70.3168H100.962C98.3741 70.3168 96.2744 72.4175 96.2744 75.0051C96.2744 77.5926 98.3741 79.6933 100.962 79.6933H111.779C114.366 79.6933 116.466 77.5926 116.466 75.0051C116.466 72.4175 114.366 70.3168 111.779 70.3168Z" fill="#9FD402"/>
<path fill-rule="evenodd" clip-rule="evenodd" d="M104.319 97.6929L96.6697 90.0439C94.8401 88.2142 91.87 88.215 90.0403 90.0446C88.2107 91.8743 88.2099 94.8444 90.0396 96.674L97.6886 104.323C99.5182 106.153 102.488 106.152 104.318 104.322C106.148 102.493 106.148 99.5225 104.319 97.6929Z" fill="#9FD402"/>
<path fill-rule="evenodd" clip-rule="evenodd" d="M79.6832 109.617V100.963C79.6832 98.3755 77.5825 96.2752 74.9949 96.2752C72.4074 96.2752 70.3067 98.3755 70.3067 100.963V109.617C70.3067 112.204 72.4074 114.305 74.9949 114.305C77.5825 114.305 79.6832 112.204 79.6832 109.617Z" fill="#9FD402"/>
<path fill-rule="evenodd" clip-rule="evenodd" d="M53.8272 102.78L59.9465 96.6605C61.7762 94.8308 61.7759 91.8602 59.9462 90.0306C58.1166 88.2009 55.146 88.2006 53.3163 90.0303L47.197 96.1496C45.3674 97.9793 45.3676 100.95 47.1973 102.78C49.027 104.609 51.9975 104.609 53.8272 102.78Z" fill="#9FD402"/>
<path fill-rule="evenodd" clip-rule="evenodd" d="M42.5476 79.6832H49.0379C51.6249 79.6832 53.7252 77.5825 53.7252 74.9949C53.7252 72.4074 51.6249 70.3067 49.0379 70.3067H42.5476C39.9606 70.3067 37.8603 72.4074 37.8603 74.9949C37.8603 77.5825 39.9606 79.6832 42.5476 79.6832Z" fill="#9FD402"/>
<path fill-rule="evenodd" clip-rule="evenodd" d="M48.734 55.3606L53.3234 59.95C55.1527 61.7793 58.1232 61.779 59.9529 59.9493C61.7825 58.1197 61.7828 55.1491 59.9535 53.3198L55.3642 48.7305C53.5349 46.9012 50.5643 46.9015 48.7347 48.7311C46.905 50.5608 46.9047 53.5313 48.734 55.3606Z" fill="#9FD402"/>
<path fill-rule="evenodd" clip-rule="evenodd" d="M75.0006 126.562C46.5437 126.562 23.439 103.457 23.439 74.9999C23.439 46.5431 46.5437 23.4384 75.0006 23.4384C103.457 23.4384 126.562 46.5431 126.562 74.9999C126.562 97.4324 112.207 116.541 92.1878 123.625C89.7466 124.489 88.4695 127.169 89.3302 129.607C90.1936 132.046 92.8769 133.326 95.3153 132.462C118.971 124.089 135.939 101.511 135.939 74.9999C135.939 41.368 108.632 14.0615 75.0006 14.0615C41.3687 14.0615 14.0621 41.368 14.0621 74.9999C14.0621 108.632 41.3687 135.938 75.0006 135.938C77.5881 135.938 79.689 133.837 79.689 131.25C79.689 128.662 77.5881 126.562 75.0006 126.562Z" fill="#9FD402"/>
</g>
<defs>
<filter id="filter0_d_833_552" x="-8" y="-6" width="170" height="170" filterUnits="userSpaceOnUse" color-interpolation-filters="sRGB">
<feFlood flood-opacity="0" result="BackgroundImageFix"/>
<feColorMatrix in="SourceAlpha" type="matrix" values="0 0 0 0 0 0 0 0 0 0 0 0 0 0 0 0 0 0 127 0" result="hardAlpha"/>
<feOffset dx="2" dy="4"/>
<feGaussianBlur stdDeviation="5"/>
<feComposite in2="hardAlpha" operator="out"/>
<feColorMatrix type="matrix" values="0 0 0 0 0 0 0 0 0 0 0 0 0 0 0 0 0 0 0.25 0"/>
<feBlend mode="normal" in2="BackgroundImageFix" result="effect1_dropShadow_833_552"/>
<feBlend mode="normal" in="SourceGraphic" in2="effect1_dropShadow_833_552" result="shape"/>
</filter>
<clipPath id="clip0_833_552">
<rect width="150" height="150" fill="white"/>
</clipPath>
</defs>
</svg>
