<svg width="26" height="26" viewBox="0 0 26 26" fill="none" xmlns="http://www.w3.org/2000/svg">
<g id="Google">
<path id="Vector" d="M25.3507 13.4168C25.3507 12.3773 25.2663 11.6188 25.0838 10.8322H13.2125V15.5237H20.1807C20.0402 16.6896 19.2816 18.4455 17.5957 19.6253L17.5721 19.7824L21.3255 22.6897L21.5856 22.7157C23.9738 20.5103 25.3507 17.2655 25.3507 13.4168Z" fill="#4285F4"/>
<path id="Vector_2" d="M13.2126 25.7779C16.6264 25.7779 19.4924 24.6541 21.5857 22.7157L17.5958 19.6254C16.5281 20.3699 15.0951 20.8896 13.2126 20.8896C9.86903 20.8896 7.0312 18.6843 6.01959 15.6362L5.87131 15.6488L1.9684 18.6688L1.91736 18.8107C3.99656 22.9404 8.2674 25.7779 13.2126 25.7779Z" fill="#34A853"/>
<path id="Vector_3" d="M6.0196 15.6362C5.75268 14.8496 5.5982 14.0067 5.5982 13.1359C5.5982 12.265 5.75268 11.4222 6.00556 10.6356L5.99849 10.4681L2.04667 7.39951L1.91738 7.461C1.06044 9.17471 0.568726 11.0991 0.568726 13.1359C0.568726 15.1727 1.06044 17.097 1.91738 18.8107L6.0196 15.6362Z" fill="#FBBC05"/>
<path id="Vector_4" d="M13.1328 5.38211C15.507 5.38211 17.1085 6.40751 18.0217 7.26442L21.5901 3.78083C19.3986 1.74407 16.5466 0.493912 13.1328 0.493912C8.18757 0.493912 3.91672 3.33131 1.83752 7.461L5.92571 10.6356C6.95136 7.58746 9.7892 5.38211 13.1328 5.38211Z" fill="#EB4335"/>
</g>
</svg>
