<svg width="26" height="26" viewBox="0 0 26 26" fill="none" xmlns="http://www.w3.org/2000/svg">
<g id="cuentas">
<path id="facebook" d="M24.5431 0.144428H1.96931C1.59785 0.144428 1.24161 0.291966 0.978946 0.554586C0.716286 0.817206 0.568726 1.17339 0.568726 1.5448L0.568726 24.1152C0.568726 24.4866 0.716286 24.8428 0.978946 25.1054C1.24161 25.368 1.59785 25.5155 1.96931 25.5155H14.1235V15.7041H10.8278V11.8637H14.1235V9.03919C14.1235 5.76225 16.1253 3.97785 19.0499 3.97785C20.4499 3.97785 21.6538 4.08191 22.0037 4.1265V7.55111H19.9865C18.3957 7.55111 18.0874 8.30679 18.0874 9.41628V11.8637H21.8907L21.3951 15.7041H18.0874V25.5155H24.5422C24.7262 25.5157 24.9084 25.4796 25.0784 25.4092C25.2485 25.3389 25.403 25.2358 25.5332 25.1057C25.6633 24.9757 25.7666 24.8213 25.837 24.6513C25.9075 24.4813 25.9437 24.2992 25.9437 24.1152V1.5448C25.9437 1.17339 25.7962 0.817206 25.5335 0.554586C25.2708 0.291966 24.9146 0.144428 24.5431 0.144428Z" fill="#4267B2"/>
</g>
</svg>
