<svg width="50" height="50" viewBox="0 0 50 50" fill="none" xmlns="http://www.w3.org/2000/svg">
<path id="Vector" d="M24.7954 19.0476H29.7545V11.9048V9.52381V7.14286V0H24.7954L20.0967 7.14286L18.6834 9.42857H18.361H22.9358L24.7954 6.54762V19.0476ZM14.8773 40.4762C12.1374 40.4762 9.94297 42.6071 9.94297 45.2381C9.94297 47.869 12.1374 50 14.8773 50C17.6172 50 19.8363 47.869 19.8363 45.2381C19.8363 42.6071 17.6172 40.4762 14.8773 40.4762ZM39.6727 40.4762C36.9328 40.4762 34.7384 42.6071 34.7384 45.2381C34.7384 47.869 36.9328 50 39.6727 50C42.4126 50 44.6318 47.869 44.6318 45.2381C44.6318 42.6071 42.4126 40.4762 39.6727 40.4762ZM15.3112 32.7381C15.3112 32.631 15.336 32.5357 15.3856 32.4524L17.6172 28.5714H36.0898C37.9494 28.5714 39.5735 27.5833 40.429 26.119L50 9.42857L45.6608 7.14286H45.6484L42.9085 11.9048L36.0774 23.8095H18.6834L18.361 23.1667L12.7944 11.9048L10.4389 7.14286L8.09571 2.38095H0V7.14286H4.95909L13.8854 25.2024L10.5257 31.0357C10.1413 31.7262 9.91817 32.5 9.91817 33.3333C9.91817 35.9643 12.1374 38.0952 14.8773 38.0952H44.6318V33.3333H15.9311C15.5839 33.3333 15.3112 33.0714 15.3112 32.7381Z" fill="#F7F7F7"/>
</svg>
