<svg width="71" height="71" viewBox="0 0 71 71" fill="none" xmlns="http://www.w3.org/2000/svg">
<g filter="url(#filter0_d_24_891)">
<path d="M33.3953 17.5671L8.23145 27.2323V46.8792L33.3953 56.71L58.5592 46.8792V27.2323L33.3953 17.5671Z" fill="#F5D221"/>
<path d="M33.3953 14.4464L8.23145 24.0978V43.7585L33.3953 53.5893L58.5592 43.7585V24.0978L33.3953 14.4464Z" fill="#96DC75"/>
<path d="M33.3971 6.52686L8.35669 16.1508L18.9072 20.0008L33.3971 14.4464L47.8869 20.0008L58.4375 16.1508L33.3971 6.52686Z" fill="#8DB296"/>
<path d="M33.3951 14.4464L18.9053 20.0009L33.3951 25.3073L47.885 20.0009L33.3951 14.4464Z" fill="#5EA259"/>
<path d="M8.23145 24.0978V35.8389L33.3953 45.6697L58.5592 35.8389V35.8114L33.3953 45.6697L8.23145 35.8114V24.0978Z" fill="#5EA259"/>
<path d="M8.23145 16.1096V16.192L8.33727 16.1508L8.23145 16.1096ZM58.5592 16.1096L58.4533 16.1508L58.5592 16.192V35.8251V16.1096Z" fill="#8FC49C"/>
<path d="M8.35631 16.1509L8.25049 16.192V24.1116L18.9245 20.0146L8.35631 16.1509ZM58.4371 16.1509L47.8878 20.0009L58.5618 24.0979V35.8115V16.192L58.4371 16.1509Z" fill="#5CA16D"/>
<path d="M47.8852 20.0009L33.3953 25.3073L18.9055 20.0009L8.23145 24.0978V35.8115L33.3953 45.6697L58.5592 35.8115V24.0978L47.8852 20.0009Z" fill="#479B52"/>
<path d="M33.3949 14.4463L18.905 20.0007L33.3949 25.3072L47.8847 20.0007L33.3949 14.4463Z" fill="#5EA259"/>
<g clip-path="url(#clip0_24_891)">
<g filter="url(#filter1_d_24_891)">
<mask id="path-10-inside-1_24_891" fill="white">
<path d="M23.2118 28.0522H28.6311V27.3326H23.2118C22.695 27.3326 22.248 27.554 21.9547 27.9636C21.7173 28.2957 21.5916 28.7385 21.5916 29.2367C21.5916 29.7348 21.7173 30.1665 21.9547 30.5097C22.248 30.9193 22.695 31.1407 23.2118 31.1407H28.6311V30.4211H23.2118C22.8905 30.4211 22.6251 30.089 22.5274 29.602H28.3796V28.8824H22.5274C22.6251 28.3843 22.8765 28.0522 23.2118 28.0522Z"/>
</mask>
<path d="M23.2118 28.0522H28.6311V27.3326H23.2118C22.695 27.3326 22.248 27.554 21.9547 27.9636C21.7173 28.2957 21.5916 28.7385 21.5916 29.2367C21.5916 29.7348 21.7173 30.1665 21.9547 30.5097C22.248 30.9193 22.695 31.1407 23.2118 31.1407H28.6311V30.4211H23.2118C22.8905 30.4211 22.6251 30.089 22.5274 29.602H28.3796V28.8824H22.5274C22.6251 28.3843 22.8765 28.0522 23.2118 28.0522Z" fill="#F7F7F7"/>
<path d="M28.6311 28.0522V38.0522H38.6311V28.0522H28.6311ZM28.6311 27.3326H38.6311V17.3326H28.6311V27.3326ZM21.9547 27.9636L13.8244 22.1413L13.8201 22.1475L21.9547 27.9636ZM21.9547 30.5097L13.7313 36.1996L13.7773 36.2662L13.8244 36.332L21.9547 30.5097ZM28.6311 31.1407V41.1407H38.6311V31.1407H28.6311ZM28.6311 30.4211H38.6311V20.4211H28.6311V30.4211ZM22.5274 29.602V19.602H10.3206L12.7229 31.57L22.5274 29.602ZM28.3796 29.602V39.602H38.3796V29.602H28.3796ZM28.3796 28.8824H38.3796V18.8824H28.3796V28.8824ZM22.5274 28.8824L12.7146 26.9564L10.3739 38.8824H22.5274V28.8824ZM23.2118 38.0522H28.6311V18.0522H23.2118V38.0522ZM38.6311 28.0522V27.3326H18.6311V28.0522H38.6311ZM28.6311 17.3326H23.2118V37.3326H28.6311V17.3326ZM23.2118 17.3326C19.634 17.3326 16.0892 18.9788 13.8244 22.1413L30.085 33.7859C28.4068 36.1292 25.756 37.3326 23.2118 37.3326V17.3326ZM13.8201 22.1475C12.1161 24.5307 11.5916 27.1354 11.5916 29.2367H31.5916C31.5916 30.3416 31.3185 32.0607 30.0893 33.7798L13.8201 22.1475ZM11.5916 29.2367C11.5916 31.4292 12.1582 33.9261 13.7313 36.1996L30.1781 24.8197C31.2763 26.4069 31.5916 28.0403 31.5916 29.2367H11.5916ZM13.8244 36.332C16.0892 39.4945 19.634 41.1407 23.2118 41.1407V21.1407C25.7559 21.1407 28.4068 22.344 30.085 24.6874L13.8244 36.332ZM23.2118 41.1407H28.6311V21.1407H23.2118V41.1407ZM38.6311 31.1407V30.4211H18.6311V31.1407H38.6311ZM28.6311 20.4211H23.2118V40.4211H28.6311V20.4211ZM23.2118 20.4211C26.8071 20.4211 29.2707 22.3409 30.4995 23.8304C31.6837 25.2658 32.1456 26.7063 32.3318 27.6339L12.7229 31.57C13.0069 32.9847 13.6504 34.8348 15.072 36.558C16.5383 38.3353 19.2952 40.4211 23.2118 40.4211V20.4211ZM22.5274 39.602H28.3796V19.602H22.5274V39.602ZM38.3796 29.602V28.8824H18.3796V29.602H38.3796ZM28.3796 18.8824H22.5274V38.8824H28.3796V18.8824ZM32.3401 30.8084C32.1841 31.6035 31.7695 33.0616 30.5697 34.5517C29.2524 36.1879 26.7407 38.0522 23.2118 38.0522V18.0522C19.3476 18.0522 16.5426 20.0825 14.9913 22.0093C13.5576 23.79 12.9684 25.6632 12.7146 26.9564L32.3401 30.8084Z" fill="#F7F7F7" mask="url(#path-10-inside-1_24_891)"/>
<mask id="path-12-inside-2_24_891" fill="white">
<path d="M40.2517 28.0522H45.685V27.3326H40.2517C39.735 27.3326 39.288 27.554 39.0087 27.9636C38.7712 28.2957 38.6455 28.7385 38.6455 29.2367C38.6455 29.7348 38.7712 30.1665 39.0087 30.5097C39.302 30.9193 39.7489 31.1407 40.2517 31.1407H45.685V30.4211H40.2517C39.9305 30.4211 39.6651 30.089 39.5813 29.602H45.4336V28.8824H39.5813C39.6651 28.3843 39.9305 28.0522 40.2517 28.0522Z"/>
</mask>
<path d="M40.2517 28.0522H45.685V27.3326H40.2517C39.735 27.3326 39.288 27.554 39.0087 27.9636C38.7712 28.2957 38.6455 28.7385 38.6455 29.2367C38.6455 29.7348 38.7712 30.1665 39.0087 30.5097C39.302 30.9193 39.7489 31.1407 40.2517 31.1407H45.685V30.4211H40.2517C39.9305 30.4211 39.6651 30.089 39.5813 29.602H45.4336V28.8824H39.5813C39.6651 28.3843 39.9305 28.0522 40.2517 28.0522Z" fill="#F7F7F7"/>
<path d="M45.685 28.0522V38.0522H55.685V28.0522H45.685ZM45.685 27.3326H55.685V17.3326H45.685V27.3326ZM39.0087 27.9636L47.1433 33.7798L47.2077 33.6897L47.2701 33.5982L39.0087 27.9636ZM39.0087 30.5097L30.7853 36.1996L30.8313 36.2662L30.8784 36.332L39.0087 30.5097ZM45.685 31.1407V41.1407H55.685V31.1407H45.685ZM45.685 30.4211H55.685V20.4211H45.685V30.4211ZM39.5813 29.602V19.602H27.7138L29.7261 31.2976L39.5813 29.602ZM45.4336 29.602V39.602H55.4336V29.602H45.4336ZM45.4336 28.8824H55.4336V18.8824H45.4336V28.8824ZM39.5813 28.8824L29.7199 27.2234L27.7585 38.8824H39.5813V28.8824ZM40.2517 38.0522H45.685V18.0522H40.2517V38.0522ZM55.685 28.0522V27.3326H35.685V28.0522H55.685ZM45.685 17.3326H40.2517V37.3326H45.685V17.3326ZM40.2517 17.3326C36.7204 17.3326 33.0479 18.9558 30.7472 22.3291L47.2701 33.5982C45.5281 36.1523 42.7495 37.3326 40.2517 37.3326V17.3326ZM30.874 22.1475C29.17 24.5307 28.6455 27.1354 28.6455 29.2367H48.6455C48.6455 30.3416 48.3724 32.0607 47.1433 33.7798L30.874 22.1475ZM28.6455 29.2367C28.6455 31.4292 29.2121 33.9261 30.7853 36.1996L47.2321 24.8197C48.3303 26.407 48.6455 28.0404 48.6455 29.2367H28.6455ZM30.8784 36.332C33.1149 39.455 36.6376 41.1407 40.2517 41.1407V21.1407C42.8602 21.1407 45.4891 22.3835 47.1389 24.6874L30.8784 36.332ZM40.2517 41.1407H45.685V21.1407H40.2517V41.1407ZM55.685 31.1407V30.4211H35.685V31.1407H55.685ZM45.685 20.4211H40.2517V40.4211H45.685V20.4211ZM40.2517 20.4211C43.8436 20.4211 46.3288 22.3384 47.5873 23.8866C48.8004 25.379 49.262 26.8919 49.4365 27.9063L29.7261 31.2976C29.9845 32.799 30.6207 34.7216 32.0677 36.5018C33.5601 38.3378 36.3387 40.4211 40.2517 40.4211V20.4211ZM39.5813 39.602H45.4336V19.602H39.5813V39.602ZM55.4336 29.602V28.8824H35.4336V29.602H55.4336ZM45.4336 18.8824H39.5813V38.8824H45.4336V18.8824ZM49.4427 30.5414C49.2767 31.5282 48.8299 33.0449 47.6167 34.5517C46.3515 36.1232 43.8549 38.0522 40.2517 38.0522V18.0522C36.3273 18.0522 33.5375 20.1472 32.0383 22.0093C30.5912 23.8067 29.9697 25.7385 29.7199 27.2234L49.4427 30.5414Z" fill="#F7F7F7" mask="url(#path-12-inside-2_24_891)"/>
<mask id="path-14-inside-3_24_891" fill="white">
<path d="M19.3289 29.5799C19.1333 30.4322 18.7702 30.4322 18.4769 30.4322H13.9794V27.2773H13.0715V31.1518H18.4769C19.5244 31.1518 20.0412 30.6426 20.2507 29.5799H19.3289Z"/>
</mask>
<path d="M19.3289 29.5799C19.1333 30.4322 18.7702 30.4322 18.4769 30.4322H13.9794V27.2773H13.0715V31.1518H18.4769C19.5244 31.1518 20.0412 30.6426 20.2507 29.5799H19.3289Z" fill="#F7F7F7"/>
<path d="M19.3289 29.5799V19.5799H11.3632L9.58206 27.3439L19.3289 29.5799ZM13.9794 30.4322H3.97941V40.4322H13.9794V30.4322ZM13.9794 27.2773H23.9794V17.2773H13.9794V27.2773ZM13.0715 27.2773V17.2773H3.07153V27.2773H13.0715ZM13.0715 31.1518H3.07153V41.1518H13.0715V31.1518ZM20.2507 29.5799L30.0619 31.5141L32.4147 19.5799H20.2507V29.5799ZM9.58206 27.3439C9.72373 26.7263 10.4127 24.092 13.1969 22.139C15.9541 20.205 18.9023 20.4322 18.4769 20.4322V40.4322C18.4818 40.4322 18.7335 40.4337 19.023 40.4212C19.3361 40.4076 19.8124 40.3743 20.3821 40.2775C21.5892 40.0723 23.1416 39.593 24.6822 38.5124C27.7702 36.3463 28.7385 33.2858 29.0757 31.8159L9.58206 27.3439ZM18.4769 20.4322H13.9794V40.4322H18.4769V20.4322ZM23.9794 30.4322V27.2773H3.97941V30.4322H23.9794ZM13.9794 17.2773H13.0715V37.2773H13.9794V17.2773ZM3.07153 27.2773V31.1518H23.0715V27.2773H3.07153ZM13.0715 41.1518H18.4769V21.1518H13.0715V41.1518ZM18.4769 41.1518C20.6279 41.1518 23.7258 40.5977 26.4025 38.1658C28.9113 35.8865 29.7453 33.1201 30.0619 31.5141L10.4396 27.6456C10.5467 27.1024 11.0175 25.1219 12.9536 23.3629C15.0577 21.4512 17.3734 21.1518 18.4769 21.1518V41.1518ZM20.2507 19.5799H19.3289V39.5799H20.2507V19.5799Z" fill="#F7F7F7" mask="url(#path-14-inside-3_24_891)"/>
<mask id="path-16-inside-4_24_891" fill="white">
<path d="M53.884 29.5799C53.6885 30.4322 53.3253 30.4322 53.046 30.4322H48.5485V27.2773H47.6406V31.1518H53.0599C54.1075 31.1518 54.6243 30.6426 54.8338 29.5799H53.884Z"/>
</mask>
<path d="M53.884 29.5799C53.6885 30.4322 53.3253 30.4322 53.046 30.4322H48.5485V27.2773H47.6406V31.1518H53.0599C54.1075 31.1518 54.6243 30.6426 54.8338 29.5799H53.884Z" fill="#F7F7F7"/>
<path d="M53.884 29.5799V19.5799H45.9183L44.1372 27.3439L53.884 29.5799ZM48.5485 30.4322H38.5485V40.4322H48.5485V30.4322ZM48.5485 27.2773H58.5485V17.2773H48.5485V27.2773ZM47.6406 27.2773V17.2773H37.6406V27.2773H47.6406ZM47.6406 31.1518H37.6406V41.1518H47.6406V31.1518ZM54.8338 29.5799L64.6449 31.5141L66.9977 19.5799H54.8338V29.5799ZM44.1372 27.3439C44.2799 26.7217 44.9636 24.1187 47.7093 22.1704C50.4667 20.2137 53.4137 20.4322 53.046 20.4322V40.4322C53.0494 40.4322 53.3063 40.4338 53.6031 40.4205C53.9241 40.4061 54.4077 40.371 54.985 40.2703C56.2094 40.0568 57.757 39.5643 59.2835 38.481C62.3295 36.3196 63.2925 33.2904 63.6308 31.8159L44.1372 27.3439ZM53.046 20.4322H48.5485V40.4322H53.046V20.4322ZM58.5485 30.4322V27.2773H38.5485V30.4322H58.5485ZM48.5485 17.2773H47.6406V37.2773H48.5485V17.2773ZM37.6406 27.2773V31.1518H57.6406V27.2773H37.6406ZM47.6406 41.1518H53.0599V21.1518H47.6406V41.1518ZM53.0599 41.1518C55.2109 41.1518 58.3088 40.5977 60.9856 38.1658C63.4944 35.8865 64.3283 33.1201 64.6449 31.5141L45.0226 27.6456C45.1297 27.1024 45.6005 25.1219 47.5366 23.3629C49.6407 21.4512 51.9565 21.1518 53.0599 21.1518V41.1518ZM54.8338 19.5799H53.884V39.5799H54.8338V19.5799Z" fill="#F7F7F7" mask="url(#path-16-inside-4_24_891)"/>
<mask id="path-18-inside-5_24_891" fill="white">
<path d="M33.4499 31.1517H34.26L37.6959 27.2662H36.5785L33.8549 30.4101L31.1313 27.2662H30.0139L33.4499 31.1517Z"/>
</mask>
<path d="M33.4499 31.1517H34.26L37.6959 27.2662H36.5785L33.8549 30.4101L31.1313 27.2662H30.0139L33.4499 31.1517Z" fill="#F7F7F7"/>
<path d="M33.4499 31.1517L25.9587 37.7761L28.9438 41.1517H33.4499V31.1517ZM34.26 31.1517V41.1517H38.7661L41.7511 37.7762L34.26 31.1517ZM37.6959 27.2662L45.1871 33.8906L59.888 17.2662H37.6959V27.2662ZM36.5785 27.2662V17.2662H32.0111L29.0204 20.7183L36.5785 27.2662ZM33.8549 30.4101L26.2968 36.958L33.8549 45.6822L41.413 36.958L33.8549 30.4101ZM31.1313 27.2662L38.6894 20.7183L35.6987 17.2662H31.1313V27.2662ZM30.0139 27.2662V17.2662H7.82183L22.5228 33.8906L30.0139 27.2662ZM33.4499 41.1517H34.26V21.1517H33.4499V41.1517ZM41.7511 37.7762L45.1871 33.8906L30.2048 20.6418L26.7688 24.5273L41.7511 37.7762ZM37.6959 17.2662H36.5785V37.2662H37.6959V17.2662ZM29.0204 20.7183L26.2968 23.8622L41.413 36.958L44.1367 33.8141L29.0204 20.7183ZM41.413 23.8622L38.6894 20.7183L23.5732 33.8141L26.2968 36.958L41.413 23.8622ZM31.1313 17.2662H30.0139V37.2662H31.1313V17.2662ZM22.5228 33.8906L25.9587 37.7761L40.941 24.5273L37.5051 20.6418L22.5228 33.8906Z" fill="#F7F7F7" mask="url(#path-18-inside-5_24_891)"/>
</g>
<path fill-rule="evenodd" clip-rule="evenodd" d="M39.6738 35.9425L41.6742 34.4962L40.7267 33L39.6738 35.9425Z" fill="#D46702"/>
<path fill-rule="evenodd" clip-rule="evenodd" d="M39 35.9425L41.0004 34.4962L40.0529 33L39 35.9425Z" fill="#F5D221"/>
</g>
<path fill-rule="evenodd" clip-rule="evenodd" d="M30.5478 33.0259L29.7956 35.0759L32.4658 35.0902L33.1992 33.0259H33.8761L32.9967 35.4257C32.9631 35.5174 32.8348 35.5918 32.7105 35.5918H29.288C29.0804 35.5918 28.9575 35.4677 29.0136 35.315L29.8523 33.0259H30.5478ZM33.9514 34.0866L37.3361 34.0723L37.5619 33.5275H34.1206L34.3274 33.0258L37.9945 33C38.2227 32.9984 38.3587 33.1337 38.2986 33.3023L37.9531 34.2688C37.8928 34.4373 37.6587 34.5739 37.4304 34.5739H34.4027L34.0457 35.6348H33.3872L33.9514 34.0866Z" fill="#F7F7F7"/>
</g>
<defs>
<filter id="filter0_d_24_891" x="0" y="0.526855" width="71" height="70.4731" filterUnits="userSpaceOnUse" color-interpolation-filters="sRGB">
<feFlood flood-opacity="0" result="BackgroundImageFix"/>
<feColorMatrix in="SourceAlpha" type="matrix" values="0 0 0 0 0 0 0 0 0 0 0 0 0 0 0 0 0 0 127 0" result="hardAlpha"/>
<feOffset dx="2" dy="4"/>
<feGaussianBlur stdDeviation="5"/>
<feComposite in2="hardAlpha" operator="out"/>
<feColorMatrix type="matrix" values="0 0 0 0 0 0 0 0 0 0 0 0 0 0 0 0 0 0 0.25 0"/>
<feBlend mode="normal" in2="BackgroundImageFix" result="effect1_dropShadow_24_891"/>
<feBlend mode="normal" in="SourceGraphic" in2="effect1_dropShadow_24_891" result="shape"/>
</filter>
<filter id="filter1_d_24_891" x="5.07153" y="21.2662" width="61.7622" height="23.8855" filterUnits="userSpaceOnUse" color-interpolation-filters="sRGB">
<feFlood flood-opacity="0" result="BackgroundImageFix"/>
<feColorMatrix in="SourceAlpha" type="matrix" values="0 0 0 0 0 0 0 0 0 0 0 0 0 0 0 0 0 0 127 0" result="hardAlpha"/>
<feOffset dx="2" dy="4"/>
<feGaussianBlur stdDeviation="5"/>
<feComposite in2="hardAlpha" operator="out"/>
<feColorMatrix type="matrix" values="0 0 0 0 0 0 0 0 0 0 0 0 0 0 0 0 0 0 0.25 0"/>
<feBlend mode="normal" in2="BackgroundImageFix" result="effect1_dropShadow_24_891"/>
<feBlend mode="normal" in="SourceGraphic" in2="effect1_dropShadow_24_891" result="shape"/>
</filter>
<clipPath id="clip0_24_891">
<rect width="49" height="20" fill="white" transform="translate(9 23)"/>
</clipPath>
</defs>
</svg>
