<svg width="26" height="27" viewBox="0 0 26 27" fill="none" xmlns="http://www.w3.org/2000/svg">
<g id="cuentas">
<path id="apple" d="M21.7612 14.2738C21.8049 18.1133 25.8984 19.3909 25.9437 19.4072C25.9091 19.4973 25.2897 21.228 23.7871 23.0156C22.4882 24.5612 21.1401 26.1011 19.0165 26.133C16.9299 26.1643 16.2589 25.1256 13.8732 25.1256C11.4883 25.1256 10.7428 26.1011 8.76754 26.1643C6.71771 26.2275 5.15672 24.4931 3.8471 22.9531C1.17092 19.8032 -0.874241 14.0523 1.87189 10.1703C3.2361 8.24247 5.67407 7.02169 8.32025 6.99039C10.3331 6.95913 12.233 8.09288 13.4636 8.09288C14.6933 8.09288 17.0021 6.72944 19.4292 6.92968C20.4453 6.96411 23.2976 7.26384 25.129 9.44634C24.9814 9.52082 21.7258 11.0638 21.7612 14.2738ZM17.8395 4.84576C18.9278 3.7733 19.6602 2.28035 19.4604 0.794876C17.8918 0.846204 15.9949 1.64589 14.8697 2.71775C13.8614 3.66693 12.9783 5.18616 13.2165 6.64224C14.965 6.75237 16.7512 5.91889 17.8395 4.84576Z" fill="#262626"/>
</g>
</svg>
