<svg width="16" height="19" viewBox="0 0 16 19" fill="none" xmlns="http://www.w3.org/2000/svg">
<path id="icon" fill-rule="evenodd" clip-rule="evenodd" d="M10.8185 11.1022L15.9253 16.9778L14.5974 18.5056L9.49051 12.6301C8.53687 13.4196 7.38717 13.9016 6.13051 13.9016C2.93093 13.9016 0.337402 10.9177 0.337402 7.23649C0.337402 3.55532 2.93093 0.571411 6.13051 0.571411C9.33008 0.571411 11.9236 3.55532 11.9236 7.23649C11.9236 8.6823 11.5047 10.0051 10.8185 11.1022ZM6.13051 2.62221C3.9113 2.62221 2.1199 4.68325 2.1199 7.23649C2.1199 9.78973 3.9113 11.8508 6.13051 11.8508C8.34971 11.8508 10.1411 9.78973 10.1411 7.23649C10.1411 4.68325 8.34971 2.62221 6.13051 2.62221Z" fill="#262626" fill-opacity="0.75"/>
</svg>
