<svg width="52" height="35" viewBox="0 0 52 35" fill="none" xmlns="http://www.w3.org/2000/svg">
<path d="M25.5439 18.5791C26.4974 18.5791 27.2704 17.8194 27.2704 16.8821C27.2704 15.9449 26.4974 15.1851 25.5439 15.1851C24.5903 15.1851 23.8174 15.9449 23.8174 16.8821C23.8174 17.8194 24.5903 18.5791 25.5439 18.5791Z" fill="#F5D221"/>
<path fill-rule="evenodd" clip-rule="evenodd" d="M23.127 16.8821C23.127 15.57 24.2091 14.5063 25.544 14.5063C26.879 14.5063 27.9611 15.57 27.9611 16.8821C27.9611 18.1943 26.879 19.2579 25.544 19.2579C24.2091 19.2579 23.127 18.1943 23.127 16.8821ZM25.544 15.8639C24.9719 15.8639 24.5081 16.3198 24.5081 16.8821C24.5081 17.4445 24.9719 17.9003 25.544 17.9003C26.1162 17.9003 26.5799 17.4445 26.5799 16.8821C26.5799 16.3198 26.1162 15.8639 25.544 15.8639Z" fill="#F5D221"/>
<path fill-rule="evenodd" clip-rule="evenodd" d="M26.0484 1.64918C25.9498 1.59585 25.829 1.59585 25.7304 1.64918L25.3978 1.05511L25.7304 1.64918L11.5501 9.31797L11.5501 9.31797C11.4471 9.37367 11.3868 9.47689 11.3868 9.58515L11.3868 24.858C11.3868 24.9661 11.447 25.0693 11.5501 25.1252M11.5503 25.1253L25.7304 32.7939L25.7305 32.7939C25.829 32.8472 25.9498 32.8472 26.0483 32.7939L26.0484 32.7939L40.2285 25.1253C40.2286 25.1253 40.2286 25.1252 40.2287 25.1252C40.3318 25.0693 40.3919 24.9662 40.3919 24.858V9.58515C40.3919 9.47698 40.3316 9.37366 40.2286 9.31791L26.0484 1.64918L26.3616 1.08975L26.0484 1.64918M25.0646 0.459742C25.5777 0.182202 26.201 0.182202 26.7142 0.459742L40.8945 8.12852L40.8946 8.12858C41.4344 8.42063 41.7731 8.97716 41.7731 9.58515V24.858C41.7731 25.466 41.4346 26.0224 40.8947 26.3146L40.8945 26.3146L26.7143 33.9833C26.7143 33.9833 26.7142 33.9833 26.7142 33.9833C26.201 34.2609 25.5777 34.2609 25.0646 33.9833C25.0645 33.9833 25.0645 33.9833 25.0645 33.9833L10.8843 26.3146L10.8841 26.3145C10.3443 26.0224 10.0056 25.466 10.0056 24.858L10.0056 9.58515C10.0056 8.97725 10.3442 8.42061 10.8843 8.12852L25.0646 0.459742Z" fill="#F5D221"/>
</svg>
