<svg width="53" height="33" viewBox="0 0 53 33" fill="none" xmlns="http://www.w3.org/2000/svg">
<g id="categoria">
<path id="arcade" d="M13.3345 0.344733C13.2759 0.344733 13.2165 0.345985 13.1565 0.348992C12.4368 0.384699 11.6145 0.657702 10.517 1.37686C7.73522 3.19979 3.90002 8.94362 1.87051 15.1592C-0.158744 21.3747 -0.429738 27.9699 2.62715 31.8182C3.15511 32.483 4.33354 32.937 5.65523 32.9265C6.95742 32.916 8.29148 32.4456 9.03078 31.7438C9.16105 31.5596 10.2157 30.0729 11.7573 28.3104C13.3969 26.4361 15.4176 24.3405 17.5997 23.4521C22.9358 21.2796 29.4571 21.2796 34.7932 23.4521C36.9751 24.3406 38.9957 26.4362 40.6354 28.3105C42.1771 30.0731 43.2319 31.5596 43.3619 31.7439C44.1012 32.4458 45.4354 32.9161 46.7376 32.9266C48.0592 32.9373 49.2375 32.4831 49.7656 31.8183C52.8213 27.9715 52.5552 21.3474 50.5276 15.1191C48.5 8.89062 44.6572 3.15081 41.8875 1.3845C40.4219 0.44985 39.4404 0.290733 38.5371 0.427297C37.6336 0.564237 36.7083 1.07842 35.6225 1.81423C33.4507 3.28587 30.6643 5.57538 26.1961 5.57538C21.7078 5.57538 18.9159 3.2558 16.7471 1.77214C15.663 1.03043 14.742 0.516127 13.8481 0.384199C13.6805 0.359392 13.5103 0.345109 13.3344 0.344482L13.3345 0.344733ZM40.4725 6.45252C41.0134 6.45252 41.5322 6.66372 41.9146 7.03966C42.2971 7.41559 42.512 7.92547 42.512 8.45713C42.512 8.98878 42.2971 9.49866 41.9146 9.8746C41.5322 10.2505 41.0134 10.4617 40.4725 10.4617C39.9316 10.4617 39.4129 10.2505 39.0304 9.8746C38.648 9.49866 38.4331 8.98878 38.4331 8.45713C38.4331 7.92547 38.648 7.41559 39.0304 7.03966C39.4129 6.66372 39.9316 6.45252 40.4725 6.45252ZM10.7745 7.49304H13.0689V11.5023H17.1478V13.7574H13.0689V17.7667H10.7745V13.7574H6.69561V11.5023H10.7745V7.49304ZM36.3936 10.4617C36.9345 10.4617 37.4533 10.6729 37.8357 11.0489C38.2182 11.4248 38.4331 11.9347 38.4331 12.4663C38.4331 12.998 38.2182 13.5079 37.8357 13.8838C37.4533 14.2598 36.9345 14.471 36.3936 14.471C35.8527 14.471 35.334 14.2598 34.9515 13.8838C34.569 13.5079 34.3542 12.998 34.3542 12.4663C34.3542 11.9347 34.569 11.4248 34.9515 11.0489C35.334 10.6729 35.8527 10.4617 36.3936 10.4617ZM44.5514 10.4617C45.0923 10.4617 45.6111 10.6729 45.9936 11.0489C46.376 11.4248 46.5909 11.9347 46.5909 12.4663C46.5909 12.998 46.376 13.5079 45.9936 13.8838C45.6111 14.2598 45.0923 14.471 44.5514 14.471C44.0106 14.471 43.4918 14.2598 43.1093 13.8838C42.7269 13.5079 42.512 12.998 42.512 12.4663C42.512 11.9347 42.7269 11.4248 43.1093 11.0489C43.4918 10.6729 44.0106 10.4617 44.5514 10.4617ZM40.4725 14.471C41.0134 14.471 41.5322 14.6821 41.9146 15.0581C42.2971 15.434 42.512 15.9439 42.512 16.4756C42.512 17.0072 42.2971 17.5171 41.9146 17.893C41.5322 18.269 41.0134 18.4802 40.4725 18.4802C39.9316 18.4802 39.4129 18.269 39.0304 17.893C38.648 17.5171 38.4331 17.0072 38.4331 16.4756C38.4331 15.9439 38.648 15.434 39.0304 15.0581C39.4129 14.6821 39.9316 14.471 40.4725 14.471ZM20.078 15.348H24.1569V17.6032H20.078V15.348ZM28.2358 15.348H31.7917V17.6032H28.2358V15.348Z" fill="#F5D221"/>
</g>
</svg>
