<svg width="31" height="32" viewBox="0 0 31 32" fill="none" xmlns="http://www.w3.org/2000/svg">
<g id="redes">
<path id="twitch" d="M6.30957 0.5C5.82957 0.5 5.37868 0.728164 5.09668 1.11816L0.787109 7.0625C0.60111 7.319 0.5 7.62784 0.5 7.94434V26C0.5 26.828 1.172 27.5 2 27.5H8V30.5C8 31.328 8.672 32 9.5 32H11.8789C12.2764 32 12.6575 31.8425 12.9395 31.5605L16.5605 27.9395C16.841 27.6575 17.2236 27.5 17.6211 27.5H22.3789C22.7764 27.5 23.1575 27.3425 23.4395 27.0605L30.0605 20.4395C30.3425 20.159 30.5 19.7764 30.5 19.3789V2C30.5 1.172 29.828 0.5 29 0.5H6.30957ZM6.5 3.5H27.5V17L23 21.5H15.5L11 26V21.5H6.5V3.5ZM15.5 8C14.672 8 14 8.672 14 9.5V14C14 14.828 14.672 15.5 15.5 15.5C16.328 15.5 17 14.828 17 14V9.5C17 8.672 16.328 8 15.5 8ZM23 8C22.172 8 21.5 8.672 21.5 9.5V14C21.5 14.828 22.172 15.5 23 15.5C23.828 15.5 24.5 14.828 24.5 14V9.5C24.5 8.672 23.828 8 23 8Z" fill="#F7F7F7"/>
</g>
</svg>
