<svg width="31" height="31" viewBox="0 0 31 31" fill="none" xmlns="http://www.w3.org/2000/svg">
<g id="redes">
<path id="whatsapp" d="M15.5176 0.5C7.25858 0.5 0.535227 7.21756 0.532227 15.4766C0.530727 18.1166 1.2222 20.6938 2.5332 22.9648L0.5 30.5L8.34863 28.6455C10.5371 29.8395 13.0008 30.4663 15.5088 30.4678H15.5146C23.7721 30.4678 30.4926 23.7487 30.4971 15.4912C30.5001 11.4877 28.9433 7.7236 26.1143 4.8916C23.2853 2.0611 19.5256 0.5015 15.5176 0.5ZM15.5146 3.5C18.7186 3.5015 21.7297 4.7507 23.9932 7.0127C26.2567 9.2777 27.5001 12.2873 27.4971 15.4883C27.4941 22.0943 22.1207 27.4678 15.5117 27.4678C13.5122 27.4663 11.5316 26.9642 9.78711 26.0117L8.77637 25.4609L7.66016 25.7246L4.70703 26.4219L5.42773 23.7441L5.75293 22.543L5.13184 21.4648C4.08484 19.6528 3.53073 17.5811 3.53223 15.4766C3.53523 8.87356 8.91015 3.5 15.5146 3.5ZM10.2148 8.5625C9.96434 8.5625 9.55932 8.65625 9.21582 9.03125C8.87232 9.40475 7.90332 10.3094 7.90332 12.1514C7.90332 13.9934 9.24512 15.7739 9.43262 16.0244C9.61862 16.2734 12.0226 20.1729 15.8281 21.6729C18.9901 22.9194 19.6323 22.6734 20.3193 22.6104C21.0063 22.5489 22.5357 21.7065 22.8477 20.832C23.1597 19.9575 23.1604 19.2053 23.0674 19.0508C22.9744 18.8948 22.7246 18.8018 22.3496 18.6143C21.9761 18.4268 20.1355 17.5229 19.792 17.3984C19.4485 17.2739 19.1972 17.2109 18.9482 17.5859C18.6992 17.9609 17.9836 18.8018 17.7646 19.0508C17.5456 19.3013 17.3281 19.335 16.9531 19.1475C16.5781 18.9585 15.3724 18.5621 13.9414 17.2871C12.8284 16.2956 12.0774 15.0723 11.8584 14.6973C11.6409 14.3238 11.8379 14.1186 12.0254 13.9326C12.1934 13.7646 12.3975 13.4954 12.585 13.2764C12.771 13.0574 12.8355 12.9013 12.96 12.6523C13.0845 12.4033 13.0207 12.1836 12.9277 11.9961C12.8347 11.8086 12.1064 9.95975 11.7734 9.21875C11.4929 8.59625 11.1967 8.58179 10.9297 8.57129C10.7122 8.56229 10.4638 8.5625 10.2148 8.5625Z" fill="#F7F7F7"/>
</g>
</svg>
